<svg xmlns="http://www.w3.org/2000/svg" viewBox="0 0 128 128">
  <path d="M42.6,90.5a8,8,0,0,1-5.9-2.7,8.5,8.5,0,0,1-1.9-6.2l5.6-43.2a7.9,7.9,0,0,1,7.8-6.9H77.8a7.9,7.9,0,0,1,7.8,6.9l5.6,43.2a8.5,8.5,0,0,1-1.9,6.2,8,8,0,0,1-5.9,2.7Z" style="fill:white"/><path d="M77.8,33a6.4,6.4,0,0,1,6.3,5.5l5.6,43.3a6.5,6.5,0,0,1-1.6,5A6.2,6.2,0,0,1,83.4,89H42.6a6.2,6.2,0,0,1-4.7-2.2,6.5,6.5,0,0,1-1.6-5l5.6-43.3A6.4,6.4,0,0,1,48.2,33H77.8m0-3H48.2a9.4,9.4,0,0,0-9.3,8.2L33.4,81.4A9.3,9.3,0,0,0,42.6,92H83.4a9.3,9.3,0,0,0,9.2-10.6L87.1,38.2A9.4,9.4,0,0,0,77.8,30Z"/><path d="M53,42.5V30a10,10,0,0,1,20,0V42.5" style="fill:none;stroke:#000;stroke-linecap:round;stroke-linejoin:round;stroke-width:3px"/></svg>
