<svg xmlns="http://www.w3.org/2000/svg" viewBox="0 0 558.5 203.7"><title>Ресурс 1logo</title><rect y="2.5" width="12.5" height="137.93" style="fill:#000806"/><rect x="110.5" y="2.5" width="12.5" height="137.93" style="fill:#000806"/><rect x="55.4" y="40.1" width="12.5" height="99.81" style="fill:#000806"/><circle cx="61.6" cy="7.5" r="7.5" style="fill:#000806"/><path d="M225.6,41.9c-8.7-4.1-29.1-7.3-44.9-.1s-15.1,23.4-15.1,23.4h12.6c-.5-8.2,3.5-12.5,3.5-12.5,4.8-5.8,10.6-7.8,24.1-7.6s17.6,6,17.6,6c5.9,5.8,5,14.1,5,14.1.3,11.1-14.7,12.9-14.7,12.9l-26.4,4.7s-14.6,2.8-21.6,12.6-4.9,20-4.9,20c1.7,18,13.9,25.2,20.4,27.9s18.8,3.2,28.4-.6a37.2,37.2,0,0,0,18.8-16.3v14.1h12.5V65.1C240.9,53.7,234.3,46.1,225.6,41.9Zm-4.1,82.2c-8.1,12.3-24.7,12.3-24.7,12.3s-10.9.4-18-6.4a23.1,23.1,0,0,1-7-17.2,21,21,0,0,1,7-16.7s5.9-5.7,25.5-9.1c3.2-.6,24.1-5.3,24.1-5.3v19.4C228.4,115.9,221.5,124.1,221.5,124.1Z" style="fill:#000806"/><path d="M416.2,44.9c-6.3-7.6-19.4-7.3-19.4-7.3-23.2,0-38.4,16.6-38.4,16.6l-.6.7c-1.4-7.4-4.4-9.9-4.4-9.9-6.3-7.6-19.4-7.4-19.4-7.4-23.1,0-38.2,16.6-38.2,16.6V40.1H283.3V140.4h12.5V67.7c5.8-11.8,17.6-18.1,17.6-18.1s7.5-4.4,15.9-4.5,13.3,3.6,15.2,8.5S346,67.4,346,67.4v73h12.5V67.7c5.7-11.8,17.6-18.1,17.6-18.1s7.5-4.4,15.9-4.6,13.3,3.7,15.3,8.6,1.5,13.8,1.5,13.8v73h12.5V63.5C421.2,49.4,416.2,44.9,416.2,44.9Z" style="fill:#000806"/><path d="M558.5,89.1V88h0c-1.2-55.4-47.7-52.9-47.7-52.9h0c-24.3.2-33.7,17-34.8,19v-14H463.6V203.7H476V124.2c1.1,2,10.5,18.8,34.8,19h0s46.5,2.5,47.7-52.9h0Zm-47.6,46.6h0s-19.4.3-28.5-15a42.8,42.8,0,0,1-6.4-20.1V77.7a42.8,42.8,0,0,1,6.4-20.1c9.1-15.3,28.5-15,28.5-15h0c32.2.1,35,36.1,35.2,45.4h0v1h0v1.1h0C545.9,99.6,543.1,135.6,510.9,135.7Z" style="fill:#000806"/></svg>