<?xml version="1.0" encoding="UTF-8"?>
<svg width="32px" height="29px" viewBox="0 0 32 29" version="1.1" xmlns="http://www.w3.org/2000/svg" xmlns:xlink="http://www.w3.org/1999/xlink">
    <!-- Generator: Sketch 44.1 (41455) - http://www.bohemiancoding.com/sketch -->
    <title>Page 1</title>
    <desc>Created with Sketch.</desc>
    <defs>
        <polygon id="path-1" points="0 31.7544974 0 0.373371429 28.5401429 0.373371429 28.5401429 31.7544974"></polygon>
    </defs>
    <g id="Welcome" stroke="none" stroke-width="1" fill="none" fill-rule="evenodd" opacity="0.501924819">
        <g id="Desktop-HD" transform="translate(-34.000000, -25.000000)">
            <g id="Page-1" transform="translate(49.500000, 39.500000) rotate(-270.000000) translate(-49.500000, -39.500000) translate(35.000000, 23.000000)">
                <path d="M7.56268214,17.4363945 C7.56268214,17.4363945 6.18880714,9.28521989 14.4305036,8.74180825 C14.4305036,8.74180825 19.9881464,8.05242836 20.2703786,16.373131 C20.5526107,24.6933215 14.6806286,24.0792305 14.6806286,24.0792305 C14.6806286,24.0792305 8.52641429,24.4700157 7.56268214,17.4363945" id="Fill-1" fill="#000000"></path>
                <g id="Group-5" transform="translate(0.000000, 0.138952)">
                    <mask id="mask-2" fill="white">
                        <use xlink:href="#path-1"></use>
                    </mask>
                    <g id="Clip-4"></g>
                    <path d="M25.5779482,20.0458971 C25.5779482,20.0458971 24.6178411,26.0060114 18.1813946,28.1279289 C11.7449482,30.2498463 6.7196625,25.336094 6.7196625,25.336094 C0.960573214,20.0873829 4.29194821,11.4317215 4.29194821,11.4317215 C6.21164464,6.29415111 13.1058768,0.623924656 20.2802696,5.12179556 C28.1185554,10.0355479 25.5779482,20.0458971 25.5779482,20.0458971 M28.3443411,13.8327712 C28.3443411,13.8327712 27.1589661,0.542489735 16.0923589,0.37501037 C5.02575179,0.207531005 1.4126625,10.4263331 1.4126625,10.4263331 C-2.2014625,19.2494739 2.25935893,26.0060114 2.25935893,26.0060114 C2.25935893,26.0060114 8.07489464,35.1641109 19.3672875,30.3620114 C30.6596804,25.5593998 28.3443411,13.8327712 28.3443411,13.8327712" id="Fill-3" fill="#000000" mask="url(#mask-2)"></path>
                </g>
            </g>
        </g>
    </g>
</svg>