<?xml version="1.0" standalone="no"?>
<!DOCTYPE svg PUBLIC "-//W3C//DTD SVG 20010904//EN"
 "http://www.w3.org/TR/2001/REC-SVG-20010904/DTD/svg10.dtd">
<svg version="1.0" xmlns="http://www.w3.org/2000/svg"
 width="700.000000pt" height="700.000000pt" viewBox="0 0 700.000000 700.000000"
 preserveAspectRatio="xMidYMid meet">
<metadata>
Created by potrace 1.11, written by Peter Selinger 2001-2013
</metadata>
<g transform="translate(0.000000,700.000000) scale(0.100000,-0.100000)"
fill="#000000" stroke="none">
<path d="M2998 6469 c-103 -7 -199 -16 -234 -23 -12 -2 -45 -7 -75 -11 -184
-22 -600 -128 -744 -191 -16 -7 -70 -29 -118 -48 -187 -77 -441 -219 -522
-293 -11 -10 -43 -36 -70 -58 -52 -42 -239 -225 -316 -310 -64 -71 -227 -287
-278 -368 -103 -166 -175 -311 -251 -507 -23 -57 -69 -200 -75 -229 -2 -9 -10
-43 -18 -76 -21 -79 -45 -215 -52 -292 -3 -34 -8 -72 -11 -85 -6 -30 -7 -412
0 -463 2 -22 8 -69 11 -105 3 -36 8 -72 10 -80 2 -8 7 -35 10 -60 30 -213 109
-491 218 -765 55 -139 202 -439 257 -525 16 -25 43 -69 60 -99 17 -29 36 -59
41 -65 6 -6 37 -49 71 -96 34 -47 64 -87 67 -90 3 -3 26 -30 51 -60 105 -129
295 -316 415 -407 17 -13 48 -37 70 -54 155 -121 432 -275 635 -354 155 -61
354 -123 485 -151 113 -25 210 -41 295 -50 30 -3 66 -7 80 -10 132 -24 691
-24 820 0 14 3 95 15 180 26 568 78 1162 282 1594 548 607 374 986 887 1121
1515 13 62 27 137 30 167 4 30 11 82 15 115 8 64 6 576 -3 635 -3 19 -8 58
-12 85 -78 604 -313 1127 -716 1596 -98 113 -265 276 -369 359 -25 19 -60 49
-80 66 -83 72 -316 228 -487 327 -198 114 -690 315 -842 343 -14 3 -28 7 -33
10 -4 3 -16 7 -25 9 -10 2 -74 18 -143 34 -275 64 -503 92 -790 94 -96 1 -219
-1 -272 -4z m527 -693 c50 -4 106 -9 125 -12 19 -2 51 -7 70 -9 58 -7 111 -15
190 -30 41 -8 86 -16 100 -19 14 -2 72 -16 130 -31 317 -80 524 -167 780 -328
75 -47 235 -162 260 -187 3 -3 37 -32 75 -65 465 -397 793 -977 852 -1510 10
-85 10 -381 1 -450 -52 -389 -198 -735 -454 -1079 -84 -112 -256 -298 -354
-382 -134 -115 -330 -245 -485 -322 -181 -89 -411 -174 -565 -207 -8 -2 -44
-10 -80 -19 -70 -16 -78 -18 -220 -40 -153 -24 -280 -31 -530 -31 -239 1 -290
4 -510 30 -168 19 -407 80 -575 145 -577 224 -1041 671 -1280 1233 -183 430
-235 876 -150 1302 21 102 21 106 49 207 44 161 104 317 188 483 254 506 603
876 1030 1091 151 76 390 156 562 188 140 26 203 34 321 42 50 4 91 7 92 8 5
4 294 -2 378 -8z"/>
<path d="M3315 4898 c-33 -4 -78 -10 -100 -13 -200 -26 -387 -80 -550 -156
-75 -35 -168 -85 -190 -101 -5 -5 -38 -28 -72 -53 -179 -132 -345 -351 -434
-575 -29 -73 -74 -230 -85 -299 -3 -18 -8 -43 -11 -55 -10 -43 -12 -403 -3
-451 6 -27 13 -63 16 -80 8 -45 53 -174 81 -230 129 -259 381 -465 678 -553
134 -40 175 -51 175 -47 0 3 10 1 23 -4 12 -5 49 -12 82 -16 32 -3 62 -8 65
-10 12 -8 233 -19 370 -19 129 0 321 9 390 18 14 2 50 6 80 10 206 25 452 97
614 178 336 169 544 440 602 783 13 78 12 272 -1 360 -29 190 -84 417 -106
440 -5 5 -9 15 -9 23 0 8 -18 52 -41 98 -122 254 -317 454 -565 581 -94 48
-246 106 -306 117 -15 2 -31 7 -35 9 -8 5 -144 29 -238 43 -65 9 -365 11 -430
2z"/>
</g>
</svg>
