<?xml version="1.0" encoding="UTF-8"?>
<svg width="18px" height="19px" viewBox="0 0 18 19" version="1.1" xmlns="http://www.w3.org/2000/svg" xmlns:xlink="http://www.w3.org/1999/xlink">
    <!-- Generator: Sketch 44.1 (41455) - http://www.bohemiancoding.com/sketch -->
    <title>Fill 1</title>
    <desc>Created with Sketch.</desc>
    <defs></defs>
    <g id="kit" stroke="none" stroke-width="1" fill="none" fill-rule="evenodd">
        <g id="find-/-norm-" fill="#000000">
            <path d="M10.0888439,12.6158118 C7.20870794,14.0334188 3.70390392,12.8595147 2.27632928,10.0019957 C1.58503001,8.61825923 1.47758711,7.05029997 1.97565574,5.58560463 C2.47289148,4.12256151 3.51567063,2.93874401 4.91159542,2.25307163 C5.74115455,1.84497264 6.62152001,1.65248871 7.49022499,1.65248871 C9.63741719,1.65248871 11.7079834,2.83217565 12.7241101,4.86688779 C13.4154094,6.25062423 13.5228523,7.81858349 13.0247836,9.28327883 C12.526715,10.746322 11.4839358,11.9301395 10.0888439,12.6158118 M17.7730934,17.6063502 L12.9473248,12.535679 C13.6811015,11.7657433 14.2516316,10.8446292 14.6031115,9.81033784 C15.2427715,7.9292824 15.1053446,5.91274471 14.2166502,4.13330096 C12.381792,0.459583983 7.87668627,-1.04806915 4.17198849,0.772680167 C2.37794194,1.65414093 1.03698793,3.17583795 0.397327885,5.05854562 C-0.243165055,6.93960106 -0.105738091,8.95613875 0.783789165,10.7364086 C2.08976177,13.351877 4.75084752,14.8686174 7.51271304,14.8686174 C8.62878657,14.8686174 9.7615179,14.620784 10.8284509,14.0970294 C11.1241271,13.9516338 11.4031455,13.782281 11.673002,13.6030148 L16.5612375,18.7406011 C16.725317,18.9124322 16.946033,19 17.1675819,19 C17.372473,19 17.578197,18.9248239 17.7389449,18.7744716 C18.0729341,18.4605493 18.088759,17.9376209 17.7730934,17.6063502" id="Fill-1"></path>
        </g>
    </g>
</svg>