<?xml version="1.0" encoding="UTF-8"?>
<svg width="705px" height="68px" viewBox="0 0 705 68" version="1.1" xmlns="http://www.w3.org/2000/svg" xmlns:xlink="http://www.w3.org/1999/xlink">
    <!-- Generator: Sketch 50 (54983) - http://www.bohemiancoding.com/sketch -->
    <title>Card networks/Acceptance Marks</title>
    <desc>Created with Sketch.</desc>
    <defs>
        <polygon id="path-1" points="77.34375 28.3333333 77.34375 0 4.21250021e-15 0 0 28.3333333"></polygon>
        <path d="M48.00413,3.75335312 C43.9394845,3.75335312 40.6395382,7.13980412 40.6395382,11.3093083 C40.6395382,15.7499998 43.7966984,19.0652642 48.00413,19.0652642 C52.1068517,19.0652642 55.3496836,15.7059319 55.3496836,11.3974442 C55.3496836,7.11946507 52.1290629,3.75335312 48.00413,3.75335312" id="path-3"></path>
        <radialGradient cx="0%" cy="0%" fx="0%" fy="0%" r="183.964652%" gradientTransform="translate(0.000000,0.000000),scale(0.647619,1.000000),rotate(32.927863),scale(1.000000,1.606518),translate(-0.000000,-0.000000)" id="radialGradient-5">
            <stop stop-color="#FFFFFF" offset="0%"></stop>
            <stop stop-color="#F3F3F3" offset="100%"></stop>
        </radialGradient>
        <rect id="path-6" x="0" y="0" width="105" height="68" rx="5.47297297"></rect>
        <radialGradient cx="21.0261418%" cy="16.5389623%" fx="21.0261418%" fy="16.5389623%" r="89.5806351%" gradientTransform="translate(0.210261,0.165390),scale(0.647619,1.000000),rotate(48.493154),scale(1.000000,1.092475),translate(-0.210261,-0.165390)" id="radialGradient-8">
            <stop stop-color="#65BCF2" offset="0%"></stop>
            <stop stop-color="#004FC5" offset="100%"></stop>
        </radialGradient>
        <path d="M0,2.00728323e-13 L0,68 L105,68 L105,34.4358974 L105,2.00728323e-13 L0,2.00728323e-13 Z" id="path-9"></path>
        <polygon id="path-11" points="0.017961337 8.71794872 66.1066103 8.71794872 66.1066103 0.044959707 0.017961337 0.044959707"></polygon>
        <polygon id="path-13" points="0 56.4284176 70.4483553 56.4284176 70.4483553 0.000249084249 0 0.000249084249"></polygon>
    </defs>
    <g id="Logos" stroke="none" stroke-width="1" fill="none" fill-rule="evenodd">
        <g id="Fin-Tech-Logos" transform="translate(-1901.000000, -1402.000000)">
            <g id="Card-networks/Acceptance-Marks" transform="translate(1901.000000, 1402.000000)">
                <g>
                    <g id="img-fi-discover" transform="translate(480.000000, 0.000000)">
                        <rect id="Rectangle-2" fill="#FFFFFF" x="0" y="0" width="105" height="68" rx="11.25"></rect>
                        <g id="Page-1" transform="translate(26.011173, 36.833333)">
                            <mask id="mask-2" fill="white">
                                <use xlink:href="#path-1"></use>
                            </mask>
                            <g id="Clip-2"></g>
                            <path d="M77.34375,0 C77.34375,0 50.0283083,19.5732634 0,28.3333333 L77.34375,28.3333333 L77.34375,0 Z" id="Fill-1" fill="#F4811F" mask="url(#mask-2)"></path>
                        </g>
                        <rect id="Rectangle-4" stroke="#979797" stroke-width="2.8125" x="1.40625" y="1.40625" width="102.1875" height="65.1875" rx="5.625"></rect>
                        <g id="Group-2" transform="translate(7.500000, 17.000000)">
                            <g id="Text">
                                <path d="M6.20269415,4.03470991 L2.24593155,4.03470991 L2.24593155,18.7330598 L6.18048297,18.7330598 C8.2746797,18.7330598 9.78186673,18.2076344 11.1081913,17.0381393 C12.6820119,15.6516944 13.6148813,13.553383 13.6148813,11.3906645 C13.6148813,7.05166825 10.568777,4.03470991 6.20269415,4.03470991 L6.20269415,4.03470991 Z M9.35350831,15.0754215 C8.4999645,15.8923731 7.40527075,16.2449166 5.66327984,16.2449166 L4.93983007,16.2449166 L4.93983007,6.51946324 L5.66327984,6.51946324 C7.40527075,6.51946324 8.45871517,6.85166765 9.35350831,7.70929738 C10.2832047,8.59404583 10.8384842,9.96015169 10.8384842,11.3703255 C10.8384842,12.7838891 10.2832047,14.1974527 9.35350831,15.0754215 L9.35350831,15.0754215 Z" id="Fill-10" fill="#001722"></path>
                                <polygon id="Fill-12" fill="#001722" points="14.8555343 4.03470991 17.5462597 4.03470991 17.5462597 18.7330598 14.8555343 18.7330598"></polygon>
                                <path d="M24.1334603,9.67201522 C22.5152174,9.03472514 22.0392636,8.61438488 22.0392636,7.82455196 C22.0392636,6.89573558 22.8864614,6.19064868 24.0509617,6.19064868 C24.8569101,6.19064868 25.5200724,6.54319213 26.224484,7.37709297 L27.6301343,5.42115481 C26.475153,4.33640575 25.0853679,3.78725153 23.5718349,3.78725153 C21.1317784,3.78725153 19.2660395,5.5940367 19.2660395,7.99404401 C19.2660395,10.0245587 20.1354484,11.06185 22.6611766,12.0347343 C23.717794,12.4279558 24.2572083,12.6923634 24.5269155,12.872025 C25.0631568,13.2482973 25.3360369,13.7737226 25.3360369,14.3906737 C25.3360369,15.5838976 24.4412438,16.4652562 23.2386672,16.4652562 C21.956765,16.4652562 20.9223587,15.7805084 20.3004457,14.5025384 L18.5648009,16.2889845 C19.8022808,18.2279735 21.2936027,19.0889931 23.3465501,19.0889931 C26.1419854,19.0889931 28.1060881,17.1025463 28.1060881,14.2618597 C28.1060881,11.9228695 27.1986028,10.8652392 24.1334603,9.67201522" id="Fill-13" fill="#001722"></path>
                                <path d="M28.9564589,11.3906645 C28.9564589,15.7161014 32.1421763,19.0652642 36.2448981,19.0652642 C37.4030523,19.0652642 38.3962092,18.8211956 39.617824,18.2076344 L39.617824,14.8347428 C38.5421684,15.980509 37.5870878,16.4415274 36.365473,16.4415274 C33.6557094,16.4415274 31.729683,14.3466057 31.729683,11.3703255 C31.729683,8.5499779 33.7159969,6.32285248 36.2448981,6.32285248 C37.5268003,6.32285248 38.5009191,6.80759971 39.617824,7.9770948 L39.617824,4.60081333 C38.4406316,3.96352326 37.4665128,3.70250551 36.3083586,3.70250551 C32.227848,3.70250551 28.9564589,7.11946507 28.9564589,11.3906645" id="Fill-14" fill="#001722"></path>
                                <polyline id="Fill-15" fill="#001722" points="61.4418923 13.9093163 57.7548368 4.03470991 54.8166154 4.03470991 60.6771932 19.1093321 62.1240927 19.1093321 68.0862073 4.03470991 65.1701971 4.03470991 61.4418923 13.9093163"></polyline>
                                <polyline id="Fill-16" fill="#001722" points="69.3109951 18.7330598 76.9516401 18.7330598 76.9516401 16.2449166 72.0017206 16.2449166 72.0017206 12.275413 76.7612586 12.275413 76.7612586 9.78387997 72.0017206 9.78387997 72.0017206 6.51946324 76.9516401 6.51946324 76.9516401 4.03470991 69.3109951 4.03470991 69.3109951 18.7330598"></polyline>
                                <path d="M87.6098323,8.37031634 C87.6098323,5.61776558 85.8329381,4.03470991 82.7265463,4.03470991 L78.7285343,4.03470991 L78.7285343,18.7330598 L81.4224328,18.7330598 L81.4224328,12.8245672 L81.7746387,12.8245672 L85.4997704,18.7330598 L88.8124089,18.7330598 L84.4621911,12.5398206 C86.4961004,12.0991413 87.6098323,10.6211707 87.6098323,8.37031634 L87.6098323,8.37031634 Z M82.2061701,10.8008322 L81.4224328,10.8008322 L81.4224328,6.34319152 L82.2505925,6.34319152 C83.9291229,6.34319152 84.8429542,7.09573618 84.8429542,8.52624902 C84.8429542,10.0008298 83.9291229,10.8008322 82.2061701,10.8008322 L82.2061701,10.8008322 Z" id="Fill-17" fill="#001722"></path>
                                <path d="M89.5619219,5.15382858 C89.5619219,4.87701926 89.3903072,4.72962728 89.0773628,4.72962728 L88.6601036,4.72962728 L88.6601036,6.10288909 L88.966318,6.10288909 L88.966318,5.57084002 L89.3263723,6.10288909 L89.7099816,6.10288909 L89.2792624,5.53489075 C89.4609721,5.48456179 89.5619219,5.34076474 89.5619219,5.15382858 L89.5619219,5.15382858 Z M89.0201579,5.33716981 L88.966318,5.33716981 L88.966318,4.97767719 L89.0268879,4.97767719 C89.1783126,4.97767719 89.2523425,5.04238586 89.2523425,5.1574235 C89.2523425,5.27605607 89.1749476,5.33716981 89.0201579,5.33716981 L89.0201579,5.33716981 Z" id="Fill-18" fill="#231F20"></path>
                                <path d="M89.1106732,4.2414902 C88.5236636,4.2414902 88.0477098,4.74657649 88.0477098,5.37369704 C88.0477098,6.00420744 88.5268366,6.50590388 89.1106732,6.50590388 C89.6881639,6.50590388 90.1577716,5.99742776 90.1577716,5.37369704 C90.1577716,4.75335617 89.6881639,4.2414902 89.1106732,4.2414902 L89.1106732,4.2414902 Z M89.1106732,6.30251343 C88.6347194,6.30251343 88.2571294,5.88895285 88.2571294,5.37708688 C88.2571294,4.85844124 88.6347194,4.44827049 89.1106732,4.44827049 C89.5675889,4.44827049 89.9451789,4.86861076 89.9451789,5.37708688 C89.9451789,5.88556301 89.5675889,6.30251343 89.1106732,6.30251343 L89.1106732,6.30251343 Z" id="Fill-19" fill="#231F20"></path>
                            </g>
                            <mask id="mask-4" fill="white">
                                <use xlink:href="#path-3"></use>
                            </mask>
                            <use id="Clip-8" fill="#F58220" xlink:href="#path-3"></use>
                        </g>
                    </g>
                    <g id="img-fi-amex" transform="translate(360.000000, 0.000000)">
                        <mask id="mask-7" fill="white">
                            <use xlink:href="#path-6"></use>
                        </mask>
                        <use id="Mask" fill="url(#radialGradient-5)" xlink:href="#path-6"></use>
                        <g id="img-fi-amex-small" mask="url(#mask-7)">
                            <g transform="translate(0.000000, -1.101852)">
                                <mask id="mask-10" fill="white">
                                    <use xlink:href="#path-9"></use>
                                </mask>
                                <use id="Card-Bg-(bank-brand-color)" stroke="none" fill="url(#radialGradient-8)" fill-rule="evenodd" xlink:href="#path-9"></use>
                                <g id="Logo" stroke="none" stroke-width="1" fill="none" fill-rule="evenodd" mask="url(#mask-10)">
                                    <g transform="translate(-2.812500, 15.111111)">
                                        <path d="M27.4136892,16.9614512 L28.8998358,16.9614512 L29.322816,15.9880621 L29.325674,16.9614512 L53.5041363,16.9614512 L53.5041363,12.4966844 L54.3186589,12.4966844 C54.421546,12.4966844 54.5130012,12.4995987 54.5930245,12.4995987 C54.5958824,12.6161722 54.5930245,12.7327458 54.5930245,12.8260046 L54.5901665,13.0824664 L54.6187462,16.9614512 L66.8251543,16.9614512 L66.8251543,15.6354271 C68.4627736,16.7224755 70.4776454,16.9614512 71.6694207,16.9614512 L76.5937104,16.9614512 L77.6711667,14.2190585 L80.6005903,14.2190585 L81.7237742,16.9614512 L91.406591,16.9614512 L91.403733,13.7848221 L93.2871381,16.9614512 L100.949367,16.9614512 L100.949367,0 L93.4300368,0 L93.4300368,2.52090298 L91.9381742,0 L83.964426,0 L83.964426,2.58501843 L82.8812538,0 L71.8809108,0 C69.7688678,0 68.1112428,0.454636838 66.8251543,1.34933882 L66.8251543,0 L59.31154,0 L59.31154,0.772299756 C57.9597182,0.0845158224 56.5421629,0 54.973135,0 L28.2453597,0 L26.2047661,4.91066071 L23.986978,0 L15.5216582,0 L15.5216582,2.63164785 L14.4156222,0 L7.11063998,0 L0,16.9614512 L8.12522084,16.9614512 L9.23983081,14.2190585 L12.1835443,14.2190585 L13.2867224,16.9614512 L22.9695392,16.9614512 L22.9695392,15.9822334 L23.3982353,16.9614512 L27.4136892,16.9614512 L27.4136892,16.9614512 Z M66.8251543,4.69791399 C67.0166386,4.37442239 67.2281287,4.06258815 67.5024942,3.77115428 C68.4370518,2.7861078 69.8946187,2.33147096 71.8809108,2.33147096 L74.6674357,2.33147096 L74.6674357,4.96603315 L71.9437862,4.96603315 C70.8920517,4.96603315 70.2890191,5.12923612 69.7145663,5.69753216 C69.2315687,6.21919879 68.8914697,7.19550226 68.8914697,8.4865543 C68.8914697,9.80674973 69.1401135,10.7509955 69.6888445,11.374664 C70.1232566,11.8555298 70.9320634,12.0070755 71.6922845,12.0070755 L72.9898048,12.0070755 L77.0509863,2.33147096 L81.3722434,2.33147096 L86.2508054,13.9655111 L86.2508054,2.33147096 L90.6492278,2.33147096 L95.7164162,10.8967124 L95.7164162,2.33147096 L98.6658456,2.33147096 L98.6658456,14.6328946 L94.5789424,14.6328946 L89.1144956,5.40901263 L89.1202116,14.6328946 L83.2470745,14.6328946 L82.1238906,11.8875876 L76.1250026,11.8875876 L75.0475463,14.6328946 L71.6694207,14.6328946 C70.2632974,14.6328946 68.4884954,14.3123174 67.4910623,13.2777271 C66.4679075,12.2227365 65.9477562,10.8180253 65.9477562,8.57398446 C65.9477562,7.15178718 66.1563884,5.83450608 66.8251543,4.69791399 L66.8251543,4.69791399 Z M61.5979194,9.40748533 L61.5979194,2.33147096 L64.5387749,2.33147096 L64.5387749,14.6328946 L61.5979194,14.6328946 L61.5979194,9.40748533 L61.5979194,9.40748533 Z M48.3397768,2.33147096 L54.973135,2.33147096 C56.4392758,2.33147096 57.531022,2.37810038 58.4627216,2.92599606 C59.3772734,3.47097739 59.9231465,4.27533488 59.9231465,5.65381708 C59.9231465,6.51063266 59.6544969,7.16344453 59.31154,7.67928248 C58.8771279,8.33500869 58.311249,8.7575878 57.8939847,8.92953378 C58.5227391,9.17433823 59.0600382,9.59983169 59.31154,9.96703836 C59.7202303,10.5673921 59.7973956,11.1269452 59.7973956,12.2110792 L59.7973956,14.6328946 L56.8879778,14.6328946 L56.8765459,13.0824664 C56.8765459,12.3509674 56.9508532,11.2814051 56.4135541,10.695623 C55.9934319,10.2584722 55.3589616,10.1652134 54.3186589,10.1652134 L51.2177569,10.1652134 L51.2177569,14.6328946 L48.3397768,14.6328946 L48.3397768,2.33147096 L48.3397768,2.33147096 Z M36.7078215,2.33147096 L46.3391948,2.33147096 L46.3391948,4.9019177 L39.5943755,4.9019177 L39.5943755,7.11098643 L46.1734323,7.11098643 L46.1734323,9.63771809 L39.5943755,9.62897507 L39.5943755,12.0857626 L46.3391948,12.0857626 L46.3391948,14.6328946 L36.7078215,14.6328946 L36.7078215,2.33147096 L36.7078215,2.33147096 Z M20.6831598,4.98934786 L20.6831598,14.6328946 L14.8214546,14.6328946 L13.7182765,11.8875876 L7.71081457,11.8875876 L6.59906258,14.6328946 L3.46386481,14.6328946 L8.61965039,2.33147096 L12.9094698,2.33147096 L17.8080377,13.9829971 L17.8080377,2.33147096 L22.5236952,2.33147096 L26.2905053,10.6810513 L29.7600861,2.33147096 L34.5614828,2.33147096 L34.5614828,14.6328946 L31.6091954,14.6328946 L31.5920476,5.00974823 L27.4136892,14.6328946 L24.884382,14.6328946 L20.6831598,4.98934786 L20.6831598,4.98934786 Z" id="Fill-1" fill="#FFFFFF"></path>
                                        <polyline id="Fill-2" fill="#FFFFFF" points="8.41244726 8.94331066 12.3892405 8.94331066 10.395072 4.31746032 8.41244726 8.94331066"></polyline>
                                        <path d="M56.442722,6.85658957 C56.8233256,6.66523356 57.0516878,6.28252154 57.0516878,5.79495692 C57.0516878,5.3257415 56.8174702,4.98234921 56.4397943,4.81720635 C56.0855402,4.64157823 55.5497674,4.62585034 55.0286333,4.62585034 L51.3924051,4.62585034 L51.3924051,7.08202268 L54.9817897,7.08202268 C55.5614783,7.08202268 56.0416244,7.06367347 56.442722,6.85658957" id="Fill-3" fill="#FFFFFF"></path>
                                        <polyline id="Fill-4" fill="#FFFFFF" points="79.064139 4.31746032 77.0886076 8.94331066 81.0654008 8.94331066 79.064139 4.31746032"></polyline>
                                        <polyline id="Fill-5" fill="#FFFFFF" points="47.8744726 34.3854875 47.8744726 24.3628118 43.5917722 29.2897139 47.8744726 34.3854875"></polyline>
                                        <path d="M54.1755435,25.4421769 L50.32173,25.4421769 L50.32173,28.8344671 L54.1462814,28.8344671 C55.2787232,28.8344671 55.9810127,28.2332216 55.9810127,27.0781974 C55.9810127,25.907351 55.2436087,25.4421769 54.1755435,25.4421769" id="Fill-6" fill="#FFFFFF"></path>
                                        <polyline id="Fill-7" fill="#FFFFFF" points="29.3670886 25.4421769 29.3670886 27.5938442 35.6168345 27.5938442 35.6168345 30.0155247 29.3670886 30.0155247 29.3670886 32.3809524 36.3645467 32.3809524 39.6149789 28.8989078 36.4999814 25.4421769 29.3670886 25.4421769"></polyline>
                                        <path d="M107.847876,28.0938437 L108.172299,28.0938437 L108.172299,20.8163265 L100.135716,20.8163265 C98.7867993,20.8163265 97.6911603,21.1338803 96.7833451,21.6262344 L96.7833451,20.8163265 L88.7496075,20.8163265 C87.4746821,20.8163265 86.4245761,21.0989203 85.545219,21.5417476 L85.545219,20.8163265 L71.404361,20.8163265 L71.404361,21.5650543 C70.0212946,20.9008133 68.6581488,20.8163265 67.158404,20.8163265 L58.2566926,20.8163265 L58.2566926,21.614581 C57.277732,21.1280536 56.0056524,20.8163265 54.343696,20.8163265 L44.1784425,20.8163265 L41.5489088,23.7150974 L39.0075954,20.8163265 L24.1666667,20.8163265 L24.1666667,37.7777778 L38.8083883,37.7777778 L39.4856924,37.02905 L41.4549969,34.8469602 L44.0020019,37.7777778 L52.8724093,37.7777778 L52.8724093,33.6524918 L54.1786387,33.6524918 C55.9316612,33.6524918 57.2407364,33.317458 58.2566926,32.8105372 L58.2566926,37.7777778 L65.6899631,37.7777778 L65.6899631,33.2824979 L66.4867915,33.2824979 C66.6006241,33.2824979 66.6973818,33.2854113 66.7799105,33.2883246 C66.7827563,33.4223381 66.7799105,33.559265 66.7799105,33.6612318 L66.7799105,33.9059522 L66.7799105,37.7777778 L90.5766211,37.7777778 C91.9426127,37.7777778 93.1065513,37.5126641 94.0912035,37.0581834 L94.0912035,37.7777778 L101.965575,37.7777778 C106.214378,37.7777778 108.75,35.4529344 108.75,31.5607154 C108.75,30.1594001 108.459727,29.0348518 107.847876,28.0938437 L107.847876,28.0938437 Z M57.5053972,30.599314 C57.4200228,30.6488408 57.323265,30.6896275 57.2321989,30.7333276 C57.030146,30.8352944 56.8195557,30.9226945 56.597582,30.9955279 C56.4865952,31.0275747 56.3784542,31.0596214 56.2646216,31.0887548 C56.0312647,31.1470215 55.7922162,31.1907216 55.5474761,31.2227683 C55.4421809,31.237335 55.3425773,31.2577283 55.2344363,31.2693817 C54.8872468,31.3014284 54.5343657,31.3218218 54.1786387,31.3218218 L50.5957568,31.3218218 L50.5957568,35.4471077 L45.0236497,35.4471077 L41.4863008,31.3800885 L37.8123528,35.4471077 L26.4433192,35.4471077 L26.4433192,23.1469966 L37.9916392,23.1469966 L41.5204506,27.1732291 L45.1716321,23.1469966 L54.343696,23.1469966 C54.6652732,23.1469966 54.9953878,23.1644766 55.3226566,23.1965233 C55.4194144,23.2052633 55.5104805,23.2227434 55.6072382,23.23731 C55.8434409,23.2693568 56.0767978,23.3130568 56.304463,23.3684102 C56.4097582,23.3946303 56.5093618,23.4237636 56.6118111,23.4558104 C56.8394764,23.5257305 57.0529125,23.6189573 57.2635029,23.7238374 C57.3431857,23.7617108 57.4257144,23.7937575 57.4997056,23.8403709 C57.7785955,24.0035178 58.034719,24.1928848 58.2566926,24.4346918 C58.8230099,25.0464927 59.1787369,25.9321473 59.1787369,27.2023625 C59.1787369,28.9707583 58.5014327,30.0049932 57.5053972,30.599314 L57.5053972,30.599314 Z M71.4555856,30.7653743 C71.8625373,31.3684352 71.9279911,31.927796 71.9336827,33.0144709 L71.9336827,35.4471077 L69.056563,35.4471077 L69.056563,33.9059522 C69.056563,33.1659644 69.1220168,32.0763762 68.5898493,31.505362 C68.1715144,31.0537947 67.5312058,30.9518279 66.4867915,30.9518279 L63.4133106,30.9518279 L63.4133106,35.4471077 L60.5361909,35.4471077 L60.5361909,23.1469966 L67.158404,23.1469966 C68.6154616,23.1469966 69.6769509,23.2081767 70.61607,23.7354908 C70.9262639,23.9248577 71.1795415,24.1579247 71.404361,24.4201251 C71.8226959,24.9153925 72.0845109,25.5475867 72.0845109,26.4652881 C72.0845109,28.4201376 70.8095855,29.4223257 70.0497527,29.7282261 C70.3599466,29.8447596 70.6331449,30.0049932 70.8665018,30.1797934 C71.1226252,30.3691604 71.3303698,30.5760073 71.4555856,30.7653743 L71.4555856,30.7653743 Z M83.2685665,23.5927372 L83.2685665,25.6961669 L76.5439041,25.6961669 L76.5439041,27.9248702 L83.1006634,27.9248702 L83.1006634,30.4332538 L76.5439041,30.4332538 L76.5439041,32.8833707 L83.2685665,32.895024 L83.2685665,35.4471077 L73.6810135,35.4471077 L73.6810135,23.1469966 L83.2685665,23.1469966 L83.2685665,23.5927372 L83.2685665,23.5927372 Z M94.0912035,34.2526393 L94.0912035,34.2526393 C93.9346836,34.4157862 93.7525514,34.5527131 93.5561901,34.6809 C93.280146,34.8644402 92.9813354,35.0275871 92.6369917,35.1441206 C92.4975467,35.1878207 92.3410268,35.2169541 92.1901986,35.2519141 C91.7092558,35.3684476 91.1827799,35.4471077 90.5766211,35.4471077 L84.9789017,35.4471077 L84.9789017,32.8076239 L90.5538546,32.8076239 C91.1059428,32.8076239 91.4844363,32.7347905 91.7263307,32.5017235 C91.9226919,32.3210965 92.0678285,32.0472428 92.0678285,31.703469 C92.0678285,31.3451285 91.9170003,31.0537947 91.7121016,30.8906478 C91.4929738,30.6954542 91.1941631,30.6167941 90.6932996,30.6109674 C90.2521981,30.5964007 89.791176,30.581834 89.3301539,30.564354 C89.2760834,30.5614407 89.2220129,30.5585273 89.1650966,30.555614 C88.1775985,30.5060872 87.2100212,30.374987 86.4160386,29.9991665 L86.4131928,29.9991665 C86.0119328,29.8068862 85.6618975,29.5475992 85.3773159,29.200912 C84.9333687,28.6532046 84.6459413,27.9015635 84.6459413,26.8032352 C84.6459413,25.7049069 85.067122,24.5687053 86.0973073,23.8607643 C86.1001531,23.8578509 86.1001531,23.8549376 86.1029989,23.8549376 C86.2965144,23.7238374 86.5127964,23.6131306 86.7461532,23.5140771 C86.7717656,23.5024238 86.7945321,23.4878571 86.8201444,23.4762037 C87.0392723,23.3888036 87.289704,23.3276235 87.5458274,23.2722701 C87.5998979,23.2635301 87.645431,23.2431367 87.6995015,23.2314834 C88.0210787,23.17613 88.3682682,23.1469966 88.7496075,23.1469966 L94.5066926,23.1469966 L94.5066926,25.7631737 L89.2419336,25.7631737 C88.7154577,25.7631737 88.3768056,25.7864804 88.0865324,25.9845874 C87.7763385,26.1856076 87.6596601,26.4856814 87.6596601,26.8760686 C87.6596601,27.3334626 87.9271667,27.6510164 88.2857395,27.7879433 C88.587396,27.8957368 88.9089732,27.9248702 89.3984534,27.9306968 L90.949423,27.9714836 C91.3136874,27.9802236 91.6466478,28.0064436 91.9539959,28.044317 C92.2357317,28.0792771 92.4861634,28.1317171 92.725212,28.1899839 C92.7422869,28.1928972 92.7622076,28.1958106 92.7792825,28.2016372 C93.3854412,28.3560441 93.8720757,28.5949378 94.222111,28.9561917 C94.7912741,29.5563392 95.0843932,30.3050669 95.0843932,31.5607154 C95.0843932,32.7522705 94.7144371,33.6175317 94.0912035,34.2526393 L94.0912035,34.2526393 Z M101.965575,35.4471077 L96.367856,35.4471077 L96.367856,32.8076239 L101.942809,32.8076239 C102.494897,32.8076239 102.870545,32.7347905 103.115285,32.5017235 C103.311646,32.3210965 103.453937,32.0472428 103.453937,31.703469 C103.453937,31.3451285 103.305955,31.0537947 103.101056,30.8906478 C102.881928,30.6954542 102.583117,30.6167941 102.082254,30.6109674 C101.666765,30.5964007 101.234201,30.5847474 100.801637,30.5672673 C100.764641,30.5672673 100.727646,30.564354 100.69065,30.5614407 C100.249549,30.5410473 99.8169846,30.5031739 99.3929581,30.4449072 C99.3844206,30.4449072 99.378729,30.4419938 99.3730374,30.4419938 C97.5602528,30.1856201 96.0348956,29.4194123 96.0348956,26.8032352 C96.0348956,26.0078941 96.2710983,25.1979862 96.7833451,24.5395719 C96.9341733,24.3472916 97.1106139,24.1695781 97.3126668,24.0064312 C97.3297417,23.9947778 97.3439708,23.9802111 97.3581999,23.9685578 C97.5431779,23.8258042 97.7509224,23.703444 97.9814335,23.5956506 C98.0269666,23.5723439 98.066808,23.5461238 98.112341,23.5257305 C98.328623,23.4325037 98.5705173,23.3625836 98.8266408,23.3043168 C98.900632,23.2868368 98.9632399,23.2606167 99.0400769,23.2460501 C99.3730374,23.18487 99.7373018,23.1469966 100.135716,23.1469966 L105.895647,23.1469966 L105.895647,25.7631737 L100.630888,25.7631737 C100.104412,25.7631737 99.7657599,25.7864804 99.4754867,25.9845874 C99.1652928,26.1856076 99.0486144,26.4856814 99.0486144,26.8760686 C99.0486144,27.3334626 99.3132752,27.6510164 99.6746938,27.7879433 C99.9763503,27.8957368 100.297927,27.9248702 100.787408,27.9306968 L102.338377,27.9714836 C103.90073,28.0151836 104.962219,28.2890374 105.611065,28.9561917 C106.177383,29.5563392 106.473347,30.3050669 106.473347,31.5607154 C106.473347,34.2118526 104.856924,35.4471077 101.965575,35.4471077 L101.965575,35.4471077 Z" id="Fill-8" fill="#FFFFFF"></path>
                                        <path d="M68.6757645,25.6361542 C68.3271855,25.4500408 67.7940647,25.4421769 67.2697315,25.4421769 L63.628692,25.4421769 L63.628692,27.9245624 L67.2228638,27.9245624 C67.7940647,27.9245624 68.2861762,27.9035918 68.6757645,27.6991293 C69.0594943,27.489424 69.2879747,27.1040907 69.2879747,26.6348753 C69.2879747,26.1604172 69.0594943,25.8196463 68.6757645,25.6361542" id="Fill-9" fill="#FFFFFF"></path>
                                        <path d="M57.9694093,8.37170975 C58.3490401,8.21705215 58.8638819,7.83696145 59.2591139,7.24716553 C58.8638819,7.83696145 58.3490401,8.21705215 57.9694093,8.37170975" id="Fill-10" fill="#2584BA"></path>
                                        <path d="M55.1102479,30.8390023 C54.7930222,30.8678367 54.470596,30.8861859 54.1455696,30.8861859 C54.470596,30.8861859 54.7930222,30.8678367 55.1102479,30.8390023" id="Fill-11" fill="#2584BA"></path>
                                        <path d="M54.2985232,23.1292517 C54.592347,23.1292517 54.8939715,23.1449796 55.1929958,23.1738141 C54.8939715,23.1449796 54.592347,23.1292517 54.2985232,23.1292517" id="Fill-12" fill="#2584BA"></path>
                                        <path d="M56.4833122,30.8390023 C56.2700949,30.8914286 56.0516772,30.9307483 55.8280591,30.9595828 C56.0516772,30.9307483 56.2700949,30.8914286 56.4833122,30.8390023" id="Fill-13" fill="#2584BA"></path>
                                        <path d="M57.1726741,30.5306122 C56.9880591,30.6223583 56.7956435,30.7009977 56.592827,30.7665306 C56.7956435,30.7009977 56.9880591,30.6223583 57.1726741,30.5306122" id="Fill-14" fill="#2584BA"></path>
                                        <path d="M56.592827,23.1292517 C56.8008439,23.1947846 56.9984599,23.2760454 57.1882753,23.3704127 C56.9958597,23.2760454 56.8008439,23.1921633 56.592827,23.1292517" id="Fill-15" fill="#2584BA"></path>
                                        <path d="M55.8280591,23.1292517 C56.0438766,23.1580862 56.2570939,23.1974059 56.4651108,23.2472109 C56.2570939,23.1974059 56.0438766,23.1580862 55.8280591,23.1292517" id="Fill-16" fill="#2584BA"></path>
                                        <path d="M57.6635021,23.5918367 C57.9183228,23.7386304 58.154942,23.9090159 58.3551582,24.126585 C58.1523418,23.9090159 57.9183228,23.7386304 57.6635021,23.5918367" id="Fill-17" fill="#2584BA"></path>
                                        <path d="M93.943481,33.7687075 C93.8004694,33.9128798 93.6288555,34.0360816 93.4546414,34.1540408 C93.6340559,34.0387029 93.8004694,33.9155011 93.943481,33.7687075" id="Fill-18" fill="#2584BA"></path>
                                        <path d="M87.6424051,23.2052698 C87.9362289,23.1554649 88.2534546,23.1292517 88.6018829,23.1292517 C88.2534546,23.1292517 87.9362289,23.1554649 87.6424051,23.2052698" id="Fill-19" fill="#2584BA"></path>
                                        <path d="M92.7921994,34.6938776 C92.6673892,34.7358186 92.5191772,34.7567891 92.3839662,34.7908662 C92.5217774,34.7594104 92.664789,34.7331973 92.7921994,34.6938776" id="Fill-20" fill="#2584BA"></path>
                                        <path d="M85.9599156,23.8985306 C86.1341297,23.7805714 86.334346,23.6809615 86.5475633,23.5918367 C86.334346,23.6809615 86.13673,23.7805714 85.9599156,23.8985306" id="Fill-21" fill="#2584BA"></path>
                                        <path d="M90.5703956,30.2641633 C90.1673629,30.2510567 89.7461287,30.2405714 89.3248945,30.2222222 C89.7461287,30.2379501 90.1673629,30.2510567 90.5703956,30.2641633" id="Fill-22" fill="#2584BA"></path>
                                        <path d="M89.2364873,30.2603084 C88.3368143,30.2105034 87.444942,30.1004082 86.7246835,29.7596372 C87.4501424,30.0977868 88.3342141,30.215746 89.2364873,30.2603084" id="Fill-23" fill="#2584BA"></path>
                                        <path d="M87.0305907,23.3127438 C87.230807,23.2341043 87.4596255,23.1790567 87.6936445,23.1292517 C87.4596255,23.1790567 87.230807,23.2341043 87.0305907,23.3127438" id="Fill-24" fill="#2584BA"></path>
                                        <path d="M91.9251055,27.755102 C92.1799262,27.7865578 92.4139451,27.8311202 92.6297627,27.8861678 C92.4113449,27.8337415 92.1825264,27.7865578 91.9251055,27.755102" id="Fill-25" fill="#2584BA"></path>
                                        <path d="M86.2945781,29.5527075 C85.9279483,29.3770794 85.6081224,29.1464036 85.3481013,28.8344671 C85.6081224,29.1464036 85.9279483,29.3797007 86.2945781,29.5527075" id="Fill-26" fill="#2584BA"></path>
                                        <path d="M102.425369,30.261542 C102.045738,30.2484354 101.650506,30.2405714 101.255274,30.2222222 C101.650506,30.2379501 102.045738,30.2484354 102.425369,30.261542" id="Fill-27" fill="#2584BA"></path>
                                        <path d="M97.5843882,23.9273651 C97.7508017,23.7989206 97.9458175,23.6888254 98.1538344,23.5918367 C97.9432173,23.6888254 97.7534019,23.7989206 97.5843882,23.9273651" id="Fill-28" fill="#2584BA"></path>
                                        <path d="M99.1139241,23.2183764 C99.4181487,23.1607075 99.7483755,23.1292517 100.115005,23.1292517 C99.7509757,23.1292517 99.4181487,23.1633288 99.1139241,23.2183764" id="Fill-29" fill="#2584BA"></path>
                                        <path d="M97.278481,24.3799274 C97.4162922,24.2069206 97.5775053,24.0470204 97.7621203,23.9002268 C97.5775053,24.0470204 97.4162922,24.2069206 97.278481,24.3799274" id="Fill-30" fill="#2584BA"></path>
                                        <path d="M100.758481,30.3270748 C100.358049,30.3087256 99.957616,30.2772698 99.5727848,30.2222222 C99.9602162,30.2746485 100.355448,30.3087256 100.758481,30.3270748" id="Fill-31" fill="#2584BA"></path>
                                        <path d="M98.1962025,23.3284717 C98.3938186,23.2445896 98.6174367,23.1842993 98.8488555,23.1292517 C98.6148365,23.181678 98.3938186,23.2445896 98.1962025,23.3284717" id="Fill-32" fill="#2584BA"></path>
                                        <path d="M70.8175105,23.5918367 C71.1009335,23.7622222 71.3323523,23.9719274 71.537769,24.2078458 C71.3323523,23.9719274 71.1009335,23.7622222 70.8175105,23.5918367" id="Fill-33" fill="#2584BA"></path>
                                    </g>
                                </g>
                            </g>
                        </g>
                    </g>
                    <g id="img-fi-maestro" transform="translate(240.000000, 0.000000)">
                        <rect id="Rectangle" fill="#000000" x="0" y="0" width="105" height="68" rx="5.625"></rect>
                        <g id="Maestro-logo" transform="translate(16.875000, 5.666667)">
                            <g id="Group-9" transform="translate(0.000000, 0.271014)">
                                <path d="M51.3565773,49.4702464 C51.6095752,49.4702464 51.9712595,49.5195217 52.2490138,49.6303913 L51.8631769,50.8357899 C51.5974989,50.7249203 51.3324248,50.6879638 51.0794269,50.6879638 C50.2588443,50.6879638 49.8488549,51.2293768 49.8488549,52.2013333 L49.8488549,55.4978551 L48.5947341,55.4978551 L48.5947341,49.6180725 L49.8373824,49.6180725 L49.8373824,50.3313333 C50.1628379,49.8151739 50.6332087,49.4702464 51.3565773,49.4702464 Z M47.0163655,50.7865145 L44.9664184,50.7865145 L44.9664184,53.4436884 C44.9664184,54.0343768 45.1711112,54.4279638 45.7984735,54.4279638 C46.123929,54.4279638 46.5339184,54.3170942 46.907679,54.095971 L47.2693633,55.1905 C46.8714502,55.4732174 46.2446917,55.6456812 45.7018633,55.6456812 C44.2188972,55.6456812 43.7002214,54.8338696 43.7002214,53.4683261 L43.7002214,50.7865145 L42.5306345,50.7865145 L42.5306345,49.6180725 L43.7002214,49.6180725 L43.6996176,47.8343043 L44.9658146,47.8343043 L44.9664184,49.6180725 L47.0163655,49.6180725 L47.0163655,50.7865145 Z M40.9903061,51.1191232 C40.6406981,50.8973841 39.9288019,50.6146667 39.193357,50.6146667 C38.5062172,50.6146667 38.0962278,50.8727464 38.0962278,51.3032899 C38.0962278,51.6968768 38.5303697,51.8077464 39.0725943,51.8810435 L39.6637278,51.9672754 C40.9178485,52.152058 41.677446,52.693471 41.677446,53.7264058 C41.677446,54.8461884 40.7125519,55.6456812 39.0484417,55.6456812 C38.108304,55.6456812 37.2400201,55.3993043 36.5522765,54.882529 L37.14341,53.8865507 C37.5654756,54.2185435 38.1922341,54.5012609 39.060518,54.5012609 C39.9167256,54.5012609 40.3750201,54.2431812 40.3750201,53.788 C40.3750201,53.4560072 40.0495646,53.2712246 39.3624248,53.1732899 L38.7712913,53.087058 C37.4809417,52.9022754 36.7817256,52.3122029 36.7817256,51.3525652 C36.7817256,50.1841232 37.7218633,49.4702464 39.1812807,49.4702464 C40.0978697,49.4702464 40.9299248,49.6796667 41.5325307,50.0855725 L40.9903061,51.1191232 Z M31.4156345,52.0411884 L34.4063231,52.0411884 C34.2734841,51.1308261 33.7548083,50.6146667 32.9469057,50.6146667 C32.0544693,50.6146667 31.5484735,51.1924203 31.4156345,52.0411884 Z M35.7087489,52.5579638 C35.7087489,52.7304275 35.6966727,52.8899565 35.6845964,53.0501014 L31.4035583,53.0501014 C31.5847023,54.1076739 32.3201472,54.488942 33.1280498,54.488942 C33.707107,54.488942 34.3217892,54.2678188 34.8042362,53.8742319 L35.4189184,54.8215507 C34.7197023,55.423942 33.9238761,55.6456812 33.0555922,55.6456812 C31.3311006,55.6456812 30.1011324,54.4279638 30.1011324,52.5579638 C30.1011324,50.7249203 31.2827956,49.4702464 32.9710583,49.4702464 C34.5868633,49.4702464 35.6966727,50.7249203 35.7087489,52.5579638 Z M55.7197341,50.6731812 C55.4625095,50.6731812 55.2240032,50.7193768 55.0036112,50.8111522 C54.7826155,50.9035435 54.5918104,51.0322754 54.4317998,51.1979638 C54.2711854,51.3636522 54.1443845,51.5626014 54.0526049,51.7935797 C53.9602214,52.0251739 53.9137278,52.279558 53.9137278,52.5579638 C53.9137278,52.8363696 53.9602214,53.0913696 54.0526049,53.3223478 C54.1443845,53.553942 54.2711854,53.7522754 54.4317998,53.9179638 C54.5918104,54.0836522 54.7826155,54.213 55.0036112,54.3047754 C55.2240032,54.3971667 55.4625095,54.4427464 55.7197341,54.4427464 C55.9763549,54.4427464 56.215465,54.3971667 56.435857,54.3047754 C56.6562489,54.213 56.8482617,54.0836522 57.0106875,53.9179638 C57.1731133,53.7522754 57.300518,53.553942 57.3929015,53.3223478 C57.485285,53.0913696 57.5311748,52.8363696 57.5311748,52.5579638 C57.5311748,52.279558 57.485285,52.0251739 57.3929015,51.7935797 C57.300518,51.5626014 57.1731133,51.3636522 57.0106875,51.1979638 C56.8482617,51.0322754 56.6562489,50.9035435 56.435857,50.8111522 C56.215465,50.7193768 55.9763549,50.6731812 55.7197341,50.6731812 Z M55.7197341,49.463471 C56.1647447,49.463471 56.5771494,49.5423116 56.9563443,49.6999928 C57.3355392,49.8576739 57.66341,50.0744855 57.9405604,50.3504275 C58.217107,50.6269855 58.4344799,50.9534348 58.5902638,51.3297754 C58.7472553,51.7067319 58.8251472,52.1157174 58.8251472,52.5579638 C58.8251472,53.0002101 58.7472553,53.4091957 58.5902638,53.7861522 C58.4344799,54.1624928 58.217107,54.488942 57.9405604,54.7655 C57.66341,55.041442 57.3355392,55.2582536 56.9563443,55.4159348 C56.5771494,55.5736159 56.1647447,55.6524565 55.7197341,55.6524565 C55.2741197,55.6524565 54.861715,55.5736159 54.4825201,55.4159348 C54.1033252,55.2582536 53.7760583,55.041442 53.5013231,54.7655 C53.2265879,54.488942 53.0110265,54.1624928 52.8546388,53.7861522 C52.6982511,53.4091957 52.6197553,53.0002101 52.6197553,52.5579638 C52.6197553,52.1157174 52.6982511,51.7067319 52.8546388,51.3297754 C53.0110265,50.9534348 53.2265879,50.6269855 53.5013231,50.3504275 C53.7760583,50.0744855 54.1033252,49.8576739 54.4825201,49.6999928 C54.861715,49.5423116 55.2741197,49.463471 55.7197341,49.463471 Z M24.2175731,52.5579638 C24.2175731,53.5908986 24.8811642,54.4402826 25.9662172,54.4402826 C27.002965,54.4402826 27.702785,53.6278551 27.702785,52.5579638 C27.702785,51.4880725 27.002965,50.6762609 25.9662172,50.6762609 C24.8811642,50.6762609 24.2175731,51.524413 24.2175731,52.5579638 Z M28.8844481,52.5579638 L28.8844481,55.4978551 L27.6303273,55.4978551 L27.6303273,54.7845942 C27.2324142,55.3136884 26.6292044,55.6456812 25.8092256,55.6456812 C24.1934206,55.6456812 22.9272235,54.3540507 22.9272235,52.5579638 C22.9272235,50.7618768 24.1934206,49.4702464 25.8092256,49.4702464 C26.6292044,49.4702464 27.2324142,49.8022391 27.6303273,50.3313333 L27.6303273,49.6180725 L28.8844481,49.6180725 L28.8844481,52.5579638 Z M21.818018,55.4978551 L21.818018,51.8077464 C21.818018,50.4175652 20.9497341,49.4825652 19.5506981,49.4702464 C18.8152532,49.4579275 18.0556557,49.6919855 17.5249036,50.5161159 C17.1269905,49.8638333 16.500232,49.4702464 15.6198718,49.4702464 C15.0045858,49.4702464 14.4019799,49.655029 13.9316091,50.3436522 L13.9316091,49.6180725 L12.6774883,49.6180725 L12.6774883,55.4978551 L13.9436854,55.4978551 L13.9436854,52.2382899 C13.9436854,51.217058 14.4979862,50.6762609 15.3541939,50.6762609 C16.1862489,50.6762609 16.6083146,51.2293768 16.6083146,52.225971 L16.6083146,55.4978551 L17.8745117,55.4978551 L17.8745117,52.2382899 C17.8745117,51.217058 18.4535689,50.6762609 19.2856239,50.6762609 C20.1418316,50.6762609 20.551821,51.2293768 20.551821,52.225971 L20.551821,55.4978551 L21.818018,55.4978551 Z" id="Fill-2" fill="#FFFFFF"></path>
                                <polygon id="Fill-4" fill="#7673C0" points="26.2127542 39.6075362 45.2328814 39.6075362 45.2328814 4.74152174 26.2127542 4.74152174"></polygon>
                                <path d="M27.4205625,22.1744674 C27.4205625,15.1009891 30.667268,8.80175 35.7229989,4.74146014 C32.0252447,1.77200362 27.3601811,0.000554347826 22.2893549,0.000554347826 C10.2849375,0.000554347826 0.553878178,9.92830797 0.553878178,22.1744674 C0.553878178,34.4206268 10.2849375,44.3483804 22.2893549,44.3483804 C27.3601811,44.3483804 32.0252447,42.5769312 35.7229989,39.6074746 C30.667268,35.5471848 27.4205625,29.2479457 27.4205625,22.1744674" id="Fill-6" fill="#EB001B"></path>
                                <path d="M70.8921801,22.1744674 C70.8921801,34.4206268 61.1605169,44.3483804 49.1567034,44.3483804 C44.0858771,44.3483804 39.4202097,42.5769312 35.7230593,39.6074746 C40.7787903,35.5471848 44.0254958,29.2479457 44.0254958,22.1744674 C44.0254958,15.1009891 40.7787903,8.80175 35.7230593,4.74146014 C39.4202097,1.77200362 44.0858771,0.000554347826 49.1567034,0.000554347826 C61.1605169,0.000554347826 70.8921801,9.92830797 70.8921801,22.1744674" id="Fill-8" fill="#00A1DF"></path>
                            </g>
                        </g>
                    </g>
                    <g id="img-fi-mastercard" transform="translate(120.000000, 0.000000)">
                        <rect id="Rectangle" fill="#000000" x="0" y="0" width="105" height="68" rx="5.625"></rect>
                        <g id="Mastercard-logo" transform="translate(17.062454, 5.666667)">
                            <g id="Group-3" transform="translate(3.628553, 47.710469)">
                                <mask id="mask-12" fill="white">
                                    <use xlink:href="#path-11"></use>
                                </mask>
                                <g id="Clip-2"></g>
                                <path d="M58.737624,5.41895238 C58.737624,4.29682784 59.4276538,3.39887912 60.5422243,3.39887912 C61.6078094,3.39887912 62.3099344,4.2594652 62.3099344,5.41895238 C62.3099344,6.57843956 61.6078094,7.43902564 60.5422243,7.43902564 C59.4276538,7.43902564 58.737624,6.54107692 58.737624,5.41895238 Z M63.4239001,5.41895238 L63.4239001,0.044959707 L62.2615537,0.044959707 L62.2615537,3.16224908 C61.8618081,2.62609524 61.2080638,2.28920879 60.3843823,2.28920879 C58.7618144,2.28920879 57.5262921,3.59876923 57.5262921,5.41895238 C57.5262921,7.23975824 58.7618144,8.54869597 60.3843823,8.54869597 C61.2080638,8.54869597 61.8618081,8.21180952 62.2615537,7.67565568 L62.2615537,8.39924542 L63.4239001,8.39924542 L63.4239001,5.41895238 Z M47.0518693,5.41895238 C47.0518693,4.29682784 47.7418991,3.39887912 48.8558648,3.39887912 C49.9214499,3.39887912 50.6241796,4.2594652 50.6241796,5.41895238 C50.6241796,6.57843956 49.9214499,7.43902564 48.8558648,7.43902564 C47.7418991,7.43902564 47.0518693,6.54107692 47.0518693,5.41895238 Z M51.7381454,5.41895238 L51.7381454,2.43865934 L50.5757989,2.43865934 L50.5757989,3.16224908 C50.1760534,2.62609524 49.5223091,2.28920879 48.6986275,2.28920879 C47.0760596,2.28920879 45.8405373,3.59876923 45.8405373,5.41895238 C45.8405373,7.23975824 47.0760596,8.54869597 48.6986275,8.54869597 C49.5223091,8.54869597 50.1760534,8.21180952 50.5757989,7.67565568 L50.5757989,8.39924542 L51.7381454,8.39924542 L51.7381454,5.41895238 Z M65.4232328,7.95213919 L65.4232328,8.0990989 L65.5544655,8.0990989 C65.5840986,8.0990989 65.608289,8.09287179 65.6264318,8.08041758 C65.6439698,8.06858608 65.6530411,8.04990476 65.6530411,8.02499634 C65.6530411,8.00071062 65.6439698,7.98265201 65.6264318,7.9701978 C65.608289,7.9583663 65.5840986,7.95213919 65.5544655,7.95213919 L65.4232328,7.95213919 Z M65.555675,7.84939194 C65.6240127,7.84939194 65.6772315,7.86495971 65.7141218,7.89671795 C65.7510121,7.92785348 65.7697596,7.97082051 65.7697596,8.02499634 C65.7697596,8.07045421 65.7546406,8.10781685 65.7256122,8.13708425 C65.695979,8.16635165 65.6536459,8.18503297 65.5992176,8.19126007 L65.7739929,8.39862271 L65.6373174,8.39862271 L65.4752421,8.19312821 L65.4232328,8.19312821 L65.4232328,8.39862271 L65.3095381,8.39862271 L65.3095381,7.84939194 L65.555675,7.84939194 Z M65.5218085,8.58730403 C65.5840986,8.58730403 65.6415507,8.57547253 65.6953743,8.55118681 C65.748593,8.5269011 65.7957642,8.49389744 65.8356783,8.45279853 C65.8761972,8.41107692 65.9076446,8.36250549 65.9312302,8.30583883 C65.954211,8.24979487 65.9657015,8.19001465 65.9657015,8.12649817 C65.9657015,8.06235897 65.954211,8.00257875 65.9312302,7.9465348 C65.9076446,7.89049084 65.8761972,7.84191941 65.8356783,7.8001978 C65.7957642,7.75847619 65.748593,7.72609524 65.6953743,7.70243223 C65.6415507,7.67814652 65.5840986,7.66631502 65.5218085,7.66631502 C65.4589136,7.66631502 65.3996472,7.67814652 65.3452189,7.70243223 C65.2901859,7.72609524 65.2424099,7.75847619 65.2018911,7.8001978 C65.161977,7.84191941 65.1299248,7.89049084 65.1069439,7.9465348 C65.0839631,8.00257875 65.0724727,8.06235897 65.0724727,8.12649817 C65.0724727,8.19001465 65.0839631,8.24979487 65.1069439,8.30583883 C65.1299248,8.36250549 65.161977,8.41107692 65.2018911,8.45279853 C65.2424099,8.49389744 65.2901859,8.5269011 65.3452189,8.55118681 C65.3996472,8.57547253 65.4589136,8.58730403 65.5218085,8.58730403 Z M65.5218085,7.53492308 C65.6028462,7.53492308 65.678441,7.55049084 65.7491978,7.58100366 C65.8199546,7.61213919 65.8822447,7.65448352 65.9354635,7.70803663 C65.9880775,7.76158974 66.0298059,7.82448352 66.0606486,7.89671795 C66.0908865,7.96832967 66.1066103,8.04492308 66.1066103,8.12649817 C66.1066103,8.20745055 66.0908865,8.28404396 66.0606486,8.35565568 C66.0298059,8.4272674 65.9880775,8.48953846 65.9354635,8.54309158 C65.8822447,8.59664469 65.8199546,8.63961172 65.7491978,8.67074725 C65.678441,8.70250549 65.6028462,8.71807326 65.5218085,8.71807326 C65.4389565,8.71807326 65.3621522,8.70250549 65.2901859,8.67074725 C65.2182196,8.63961172 65.1559294,8.59664469 65.1039201,8.54309158 C65.0507014,8.48953846 65.0095778,8.4272674 64.9787351,8.35565568 C64.9484971,8.28404396 64.9333781,8.20745055 64.9333781,8.12649817 C64.9333781,8.04492308 64.9484971,7.96832967 64.9787351,7.89671795 C65.0095778,7.82448352 65.0507014,7.76158974 65.1039201,7.70803663 C65.1559294,7.65448352 65.2182196,7.61213919 65.2901859,7.58100366 C65.3621522,7.55049084 65.4389565,7.53492308 65.5218085,7.53492308 Z M56.1946132,2.28920879 C55.4682978,2.28920879 54.9469957,2.63854945 54.6204259,3.16224908 L54.6204259,2.43865934 L53.4695699,2.43865934 L53.4695699,8.39924542 L54.6325211,8.39924542 L54.6325211,5.0447033 C54.6325211,4.05957509 55.0927426,3.42378755 55.9158193,3.42378755 C56.1704228,3.42378755 56.4365167,3.46115018 56.7032153,3.5732381 L57.0908657,2.45111355 C56.8120719,2.33902564 56.4486119,2.28920879 56.1946132,2.28920879 Z M11.5095885,5.41895238 C11.5095885,4.29682784 12.2002231,3.39887912 13.3141888,3.39887912 C14.3797739,3.39887912 15.0825036,4.2594652 15.0825036,5.41895238 C15.0825036,6.57843956 14.3797739,7.43902564 13.3141888,7.43902564 C12.2002231,7.43902564 11.5095885,6.54107692 11.5095885,5.41895238 Z M16.1964694,5.41895238 L16.1964694,2.43865934 L15.0335182,2.43865934 L15.0335182,3.16224908 C14.6343773,2.62609524 13.9800283,2.28920879 13.1569515,2.28920879 C11.5343836,2.28920879 10.2988613,3.59876923 10.2988613,5.41895238 C10.2988613,7.23975824 11.5343836,8.54869597 13.1569515,8.54869597 C13.9800283,8.54869597 14.6343773,8.21180952 15.0335182,7.67565568 L15.0335182,8.39924542 L16.1964694,8.39924542 L16.1964694,5.41895238 Z M31.8663752,3.39887912 C32.7257375,3.39887912 33.3075155,3.9723956 33.3921817,4.90770696 L30.2673929,4.90770696 C30.3768542,4.03466667 30.9338371,3.39887912 31.8663752,3.39887912 Z M31.8905656,2.28920879 C30.1948218,2.28920879 29.0324754,3.54832967 29.0324754,5.40649817 C29.0324754,7.3020293 30.2438073,8.54869597 31.9752318,8.54869597 C32.847294,8.54869597 33.6461804,8.32452015 34.3489102,7.71301832 L33.7308467,6.82814652 C33.2464349,7.22730403 32.6289761,7.45147985 32.0478029,7.45147985 C31.2362165,7.45147985 30.4131398,6.97759707 30.2673929,5.90528938 L34.5908137,5.90528938 C34.6029089,5.74338462 34.6150041,5.58085714 34.6150041,5.40649817 C34.6029089,3.54832967 33.5131335,2.28920879 31.8905656,2.28920879 Z M40.0282003,5.41895238 C40.0282003,7.22730403 41.2026419,8.54869597 43.0677181,8.54869597 C43.9397804,8.54869597 44.5209536,8.34942857 45.1505075,7.83818315 L44.545144,6.90287179 C44.0728273,7.25221245 43.5763203,7.43902564 43.0314326,7.43902564 C42.0263235,7.42657143 41.2389275,6.6158022 41.2389275,5.41895238 C41.2389275,4.22210256 42.0263235,3.41133333 43.0314326,3.39887912 C43.5763203,3.39887912 44.0728273,3.58569231 44.545144,3.93503297 L45.1505075,2.99972161 C44.5209536,2.48847619 43.9397804,2.28920879 43.0677181,2.28920879 C41.2026419,2.28920879 40.0282003,3.61122344 40.0282003,5.41895238 Z M22.4690279,2.91254212 C21.8636643,2.5009304 21.0278876,2.28920879 20.1074447,2.28920879 C18.6427188,2.28920879 17.7464662,2.99972161 17.7464662,4.18473993 C17.7464662,5.15679121 18.4002105,5.74338462 19.6962087,5.9301978 L20.2894771,6.01737729 C20.9795069,6.11701099 21.3550621,6.36671795 21.3550621,6.70298168 C21.3550621,7.16441026 20.84646,7.46393407 19.9864929,7.46393407 C19.0781452,7.46393407 18.4848768,7.17686447 18.0615456,6.84060073 L17.4676724,7.77591209 C18.3276395,8.42415385 19.356939,8.54869597 19.9743977,8.54869597 C21.6459511,8.54869597 22.5657893,7.75100366 22.5657893,6.6158022 C22.5657893,5.56840293 21.8636643,5.03224908 20.5918565,4.8454359 L19.9985881,4.75825641 C19.4537004,4.68353114 18.9692886,4.50854945 18.9692886,4.11001465 C18.9692886,3.67349451 19.42951,3.3739707 20.1195399,3.3739707 C20.8585551,3.3739707 21.5727753,3.66104029 21.9241402,3.88521612 L22.4690279,2.91254212 Z M38.7080118,2.28920879 C37.9816964,2.28920879 37.4609991,2.63854945 37.1338246,3.16224908 L37.1338246,2.43865934 L35.9835733,2.43865934 L35.9835733,8.39924542 L37.1459198,8.39924542 L37.1459198,5.0447033 C37.1459198,4.05957509 37.6061412,3.42378755 38.4298227,3.42378755 C38.6838214,3.42378755 38.9505201,3.46115018 39.216614,3.5732381 L39.6042644,2.45111355 C39.3260753,2.33902564 38.9626153,2.28920879 38.7080118,2.28920879 Z M27.9668903,2.43865934 L25.8599106,2.43865934 L25.8599106,0.630930403 L24.685469,0.630930403 L24.685469,2.43865934 L23.4620419,2.43865934 L23.4620419,3.52342125 L24.685469,3.52342125 L24.685469,6.34180952 C24.685469,7.72547253 25.1577856,8.54869597 26.6467018,8.54869597 C27.1915895,8.54869597 27.8217482,8.374337 28.2214938,8.0872674 L27.8580337,7.02741392 C27.4824785,7.25221245 27.0706378,7.36430037 26.744068,7.36430037 C26.1139093,7.36430037 25.8599106,6.96514286 25.8599106,6.36671795 L25.8599106,3.52342125 L27.9668903,3.52342125 L27.9668903,2.43865934 Z M9.10022934,8.39924542 L9.10022934,4.64554579 C9.10022934,3.23697436 8.27654782,2.301663 6.87169308,2.28920879 C6.13328255,2.27675458 5.37007692,2.51338462 4.8372844,3.34906227 C4.43753881,2.6883663 3.80798488,2.28920879 2.92382748,2.28920879 C2.30636872,2.28920879 1.65262444,2.46356777 1.18030779,3.16224908 L1.18030779,2.43865934 L0.017961337,2.43865934 L0.017961337,8.39924542 L1.19240297,8.39924542 L1.19240297,4.98243223 C1.19240297,3.94748718 1.79776655,3.39887912 2.6577336,3.39887912 C3.49290553,3.39887912 3.96522217,3.95994139 3.96522217,4.96997802 L3.96522217,8.39924542 L5.14026857,8.39924542 L5.14026857,4.98243223 C5.14026857,3.94748718 5.7698225,3.39887912 6.60559919,3.39887912 C7.46556624,3.39887912 7.92518295,3.95994139 7.92518295,4.96997802 L7.92518295,8.39924542 L9.10022934,8.39924542 Z" id="Fill-1" fill="#FFFFFF" mask="url(#mask-12)"></path>
                            </g>
                            <mask id="mask-14" fill="white">
                                <use xlink:href="#path-13"></use>
                            </mask>
                            <g id="Clip-5"></g>
                            <polygon id="Fill-4" fill="#FF5F00" mask="url(#mask-14)" points="24.7455215 40.0424103 45.7034385 40.0424103 45.7034385 4.79325275 24.7455215 4.79325275"></polygon>
                            <path d="M26.9089253,22.4175201 C26.9089253,15.2663114 30.1607134,8.89784982 35.2243591,4.79294139 C31.520816,1.79085348 26.8484494,-6.22710623e-05 21.7696848,-6.22710623e-05 C9.74647462,-6.22710623e-05 0.000181427647,10.0367875 0.000181427647,22.4175201 C0.000181427647,34.7982527 9.74647462,44.8351026 21.7696848,44.8351026 C26.8484494,44.8351026 31.520816,43.0441868 35.2243591,40.0420989 C30.1607134,35.9371905 26.9089253,29.5687289 26.9089253,22.4175201" id="Fill-6" fill="#EB001B" mask="url(#mask-14)"></path>
                            <path d="M69.7687878,36.5285788 L69.7687878,35.4388352 L69.5480508,35.4388352 L69.2940521,36.1884727 L69.0406582,35.4388352 L68.8199212,35.4388352 L68.8199212,36.5285788 L68.9753442,36.5285788 L68.9753442,35.7063957 L69.2136192,36.4154701 L69.3750898,36.4154701 L69.61276,35.7048356 L69.61276,36.5285788 L69.7687878,36.5285788 Z M68.3711902,36.5285788 L68.3711902,35.6244894 L68.6542173,35.6244894 L68.6542173,35.4403953 L67.9345543,35.4403953 L67.9345543,35.6244894 L68.2169767,35.6244894 L68.2169767,36.5285788 L68.3711902,36.5285788 Z" id="Fill-7" fill="#F79E1B" mask="url(#mask-14)"></path>
                            <path d="M70.4485367,22.4175201 C70.4485367,34.7982527 60.7016388,44.8351026 48.6790334,44.8351026 C43.6002688,44.8351026 38.9272973,43.0441868 35.2243591,40.0420989 C40.2880047,35.9371905 43.5397929,29.5687289 43.5397929,22.4175201 C43.5397929,15.2663114 40.2880047,8.89784982 35.2243591,4.79294139 C38.9272973,1.79085348 43.6002688,-6.22710623e-05 48.6790334,-6.22710623e-05 C60.7016388,-6.22710623e-05 70.4485367,10.0367875 70.4485367,22.4175201" id="Fill-8" fill="#F79E1B" mask="url(#mask-14)"></path>
                        </g>
                    </g>
                    <g id="img-fi-visa">
                        <rect id="Rectangle" stroke="#979797" stroke-width="2.8125" fill="#FFFFFF" x="1.40625" y="1.40625" width="102.1875" height="65.1875" rx="5.625"></rect>
                        <g id="Visa" transform="translate(7.500000, 18.888889)" fill="#16216A">
                            <path d="M63.0765421,2.50678221 C61.752251,2.00650294 59.6791631,1.46672793 57.0861682,1.46672793 C50.4876014,1.46672793 45.8345981,4.81069992 45.7953598,9.60614006 C45.7561216,13.1475907 49.1142624,15.1256686 51.6483998,16.3072493 C54.2479343,17.5151604 55.1275253,18.2853272 55.1144458,19.3648772 C55.0948267,21.0171153 53.0348182,21.7708256 51.1121436,21.7708256 C48.4439422,21.7708256 47.0248252,21.3956161 44.8274828,20.4773403 L43.967511,20.0889656 L43.0290627,25.6084942 C44.5855136,26.2963782 47.4727953,26.8921055 50.4712521,26.9217273 C57.4949001,26.9217273 62.0530776,23.617251 62.1053953,18.4959711 C62.1282843,15.6950654 60.3527531,13.5590046 56.4975944,11.7981532 C54.1596482,10.6560683 52.7307217,9.89577543 52.7405313,8.74052527 C52.7405313,7.71692754 53.9569173,6.62092098 56.5695312,6.62092098 C58.7537942,6.58471655 60.3396737,7.06524796 61.5691391,7.56223592 L62.1675225,7.84857998 L63.0765421,2.50678221" id="Fill-3"></path>
                            <path d="M80.2040413,1.92092885 L75.0442105,1.92092885 C73.4452515,1.92092885 72.2484847,2.36196453 71.5487358,3.96483299 L61.6247266,26.5629744 L68.6418349,26.5629744 C68.6418349,26.5629744 69.7862841,23.5250943 70.0478724,22.8602495 C70.8130184,22.8602495 77.6273957,22.8701234 78.6018124,22.8701234 C78.8012736,23.7324469 79.4160063,26.5629744 79.4160063,26.5629744 L85.6156509,26.5629744 L80.2040413,1.92092885 L80.2040413,1.92092885 Z M71.9672772,17.817961 C72.5231525,16.3928234 74.6289389,10.9193732 74.6289389,10.9193732 C74.5929705,10.9884907 75.1782745,9.49423549 75.5117997,8.56608578 L75.9663095,10.6922727 C75.9663095,10.6922727 77.2480926,16.5804281 77.5162207,17.817961 L71.9672772,17.817961 L71.9672772,17.817961 Z" id="Fill-4"></path>
                            <path d="M26.5620742,1.91434623 L20.0223647,18.7296542 L19.3226158,15.3132734 C18.1094997,11.3768654 14.3131984,7.10474369 10.0721968,4.96868285 L16.0494912,26.5333526 L23.1189172,26.52677 L33.6380399,1.91434623 L26.5620742,1.91434623" id="Fill-5"></path>
                            <path d="M13.9535143,1.90118099 L3.17607311,1.90118099 L3.09432674,2.41133419 C11.4749644,4.45194702 17.0239079,9.38891354 19.3226158,15.3132734 L16.9813998,3.98128955 C16.5759378,2.41791682 15.4053298,1.95713327 13.9535143,1.90118099" id="Fill-6"></path>
                            <polyline id="Fill-7" points="32.1666053 26.5531005 36.3422098 1.89788968 43.0257929 1.89788968 38.8403788 26.5531005 32.1666053 26.5531005"></polyline>
                        </g>
                    </g>
                    <g id="img-fi-unionpay" transform="translate(600.000000, 0.000000)">
                        <rect id="Rectangle" stroke="#979797" stroke-width="2.8125" x="1.40625" y="1.40625" width="102.1875" height="65.1875" rx="5.625"></rect>
                        <g id="Union-Pay" transform="translate(7.500000, 5.666667)">
                            <path d="M65.7845665,31.3021899 L63.7150074,40.2479799 L64.4339776,40.2479799 L63.9938603,42.0920533 L63.2782498,42.0920533 L63.1472225,42.6615465 L60.59723,42.6615465 L60.7349767,42.0920533 L55.5577192,42.0920533 L55.9642398,40.3903532 L56.4917086,40.3801837 L58.6015838,31.3021899 L59.0181833,29.4750657 L61.6219306,29.4750657 L61.4136308,30.4106618 C61.4136308,30.4106618 62.0721269,29.8987958 62.7037456,29.7360834 C63.3555223,29.553032 67.1183571,29.4987946 67.1183571,29.4987946 L66.6883188,31.3021899 L65.7845665,31.3021899 L65.7845665,31.3021899 Z M61.205331,31.3021899 L60.6845816,33.5937223 C60.6845816,33.5937223 61.4203502,33.2479585 61.8369497,33.1293141 C62.2535493,33.0140595 62.8885276,32.9699916 62.8885276,32.9699916 L63.2782498,31.3021899 L61.205331,31.3021899 L61.205331,31.3021899 Z M60.4057286,34.7327088 L59.8581018,37.1055974 C59.8581018,37.1055974 60.6140284,36.6920368 61.0373473,36.5835619 C61.4505872,36.4683073 62.0855656,36.4005105 62.0855656,36.4005105 L62.4752878,34.7327088 L60.4057286,34.7327088 L60.4057286,34.7327088 Z M59.1324122,40.2683189 L61.1986117,40.2683189 L61.6622467,38.2615331 L59.5893279,38.2615331 L59.1324122,40.2683189 L59.1324122,40.2683189 Z" id="Fill-3" fill="#FFFFFF"></path>
                            <path d="M67.2594634,29.4987946 L70.024475,29.4987946 L70.0614314,30.532696 C70.0412733,30.7021881 70.1958183,30.7937138 70.5116277,30.8004935 L70.9853417,30.8004935 L70.5653825,32.5157529 L69.0602486,32.5157529 C67.7701338,32.6174482 67.2762617,32.0445651 67.3132182,31.4174445 L67.2594634,29.4987946" id="Fill-4" fill="#FFFFFF"></path>
                            <path d="M67.7298177,37.6581415 L65.0857544,37.6581415 L65.4385201,36.1259334 L68.4555073,36.1259334 L68.7847553,34.7225393 L65.8047246,34.7225393 L66.2112451,33.0005002 L74.5029203,33.0005002 L74.0930401,34.7225393 L71.3179494,34.7225393 L70.9853417,36.1259334 L73.7705114,36.1259334 L73.4143859,37.6581415 L70.4007585,37.6581415 L69.8968074,38.3022112 L71.1230883,38.3022112 L71.5531266,40.2378103 C71.5934427,40.4310313 71.6169604,40.5462859 71.6774345,40.6310319 C71.734549,40.7022185 72.1074728,40.7395068 72.3258516,40.7395068 L72.6987754,40.7395068 L72.2552984,42.6208685 L71.3179494,42.6208685 C71.1734834,42.6208685 70.9551046,42.6208685 70.652734,42.5801904 C70.3738811,42.566631 70.1588619,42.3937491 69.9572815,42.3022234 C69.7758591,42.2208672 69.5070852,42.0073073 69.416374,41.6479841 L68.9930551,39.7225545 L67.7634145,41.6242552 C67.3568939,42.2174774 66.799188,42.6683262 65.7980052,42.6683262 L63.8762718,42.6683262 L64.2626343,40.9971347 L65.0017625,40.9971347 C65.2100623,40.9971347 65.4015637,40.9225582 65.5258716,40.8513715 C65.6669779,40.776795 65.7845665,40.7123881 65.9256728,40.5089976 L67.7298177,37.6581415" id="Fill-5" fill="#FFFFFF"></path>
                            <path d="M38.5073742,33.4615185 L45.5089346,33.4615185 L45.1091334,35.1530491 L42.290367,35.1530491 L41.9577593,36.5835619 L44.8034031,36.5835619 L44.3868035,38.3327198 L41.5344404,38.3327198 L40.9868136,40.6581506 C40.9196201,40.9225582 41.6822661,40.9530668 41.9577593,40.9530668 L43.372182,40.756456 L42.9152664,42.6751059 L39.6966988,42.6751059 C39.4312845,42.6751059 39.2431428,42.6445973 38.9575705,42.5734107 C38.6820773,42.5090037 38.55105,42.3835796 38.4099437,42.203918 C38.2923551,42.0140869 38.097494,41.8615441 38.1982842,41.4547632 L38.9306931,38.3564487 L37.3415674,38.3564487 L37.758167,36.5835619 L39.3607314,36.5835619 L39.6966988,35.1530491 L38.1042134,35.1530491 L38.5073742,33.4615185" id="Fill-6" fill="#FFFFFF"></path>
                            <path d="M43.032855,30.4310008 L45.9053761,30.4310008 L45.4921362,32.1937181 L41.5680371,32.1937181 L41.1648763,32.5632107 C41.0002523,32.7462621 40.9296991,32.6784653 40.704601,32.7971097 C40.4862222,32.9089745 40.0326662,33.1394836 39.4245652,33.1394836 L38.1747665,33.1394836 L38.5779274,31.4445632 L38.9441318,31.4445632 C39.2733799,31.4445632 39.4850393,31.4174445 39.5925489,31.3462578 C39.7101375,31.2649017 39.8411648,31.0920198 39.9789114,30.8004935 L40.6239688,29.468286 L43.4763319,29.468286 L43.032855,30.4310008" id="Fill-7" fill="#FFFFFF"></path>
                            <path d="M47.0779023,29.4818454 L49.5371836,29.4818454 L49.2482517,30.7293068 C49.2482517,30.7293068 49.9739412,30.1089659 50.5182084,29.8987958 C51.0355982,29.6852358 52.2518001,29.5055743 52.2518001,29.5055743 L56.2061363,29.4750657 L55.1310406,34.0174524 C54.9496182,34.793726 54.7245201,35.2920326 54.5632557,35.5327113 C54.4255091,35.7428814 54.2709641,35.9530515 53.9316371,36.1394928 C53.612468,36.3157645 53.3067377,36.4140699 53.0278848,36.4615277 C52.7725496,36.475087 52.3693887,36.4818667 51.8116828,36.4852565 L48.0118917,36.4852565 L47.1551748,40.0717081 C47.0678233,40.4310313 47.0375862,40.5971335 47.1081394,40.6886592 C47.1652538,40.776795 47.3030005,40.8818801 47.4810632,40.8818801 L49.1474614,40.7123881 L48.7039845,42.6751059 L46.8091284,42.6751059 C46.2178258,42.6751059 45.7743489,42.6683262 45.4820572,42.6445973 C45.1864059,42.6208685 44.8739562,42.6445973 44.6622968,42.481885 C44.4842341,42.3293421 44.2087408,42.1327314 44.1986618,41.9191714 C44.2087408,41.7191708 44.2692149,41.3903562 44.3565665,40.9530668 L47.0779023,29.4818454 L47.0779023,29.4818454 Z M52.5508111,34.0649102 L48.5527992,34.0649102 L48.3579381,34.8750821 L51.8284812,34.8750821 C52.2282824,34.8344041 52.3189936,34.8954212 52.3425113,34.8750821 L52.5508111,34.0649102 L52.5508111,34.0649102 Z M48.7174232,33.3293147 C48.7174232,33.3293147 49.4531918,32.6174482 50.7869823,32.3767695 C51.0859933,32.3089726 53.0077267,32.3360914 53.0077267,32.3360914 L53.2227459,31.3699867 L49.1911372,31.3699867 L48.7174232,33.3293147 L48.7174232,33.3293147 Z" id="Fill-8" fill="#FFFFFF"></path>
                            <path d="M54.6606863,36.8072914 L54.5061413,37.90221 C54.4187898,38.2310246 54.354956,38.4886525 54.1231385,38.712382 C53.8610839,38.9361115 53.5620729,39.18018 52.8263043,39.18018 L51.4824348,39.2344175 L51.5361896,40.4649297 C51.5496283,40.8140833 51.6336201,40.776795 51.6940942,40.8276427 C51.7680071,40.8920496 51.8116828,40.9225582 51.8788763,40.9428972 L52.3122742,40.9225582 L53.59231,40.8378122 L53.1757104,42.6445973 L51.6940942,42.6445973 C50.6492357,42.6445973 49.863072,42.6208685 49.6043771,42.4276475 C49.3423225,42.2513758 49.3020064,42.0445955 49.2852081,41.7191708 L49.080268,36.9055968 L51.4622767,36.9055968 L51.4891541,37.90221 L52.056939,37.90221 C52.2585195,37.90221 52.3828274,37.8750913 52.4668192,37.817464 C52.5272934,37.7700062 52.5709691,37.6920399 52.6146449,37.5632259 L52.7826286,36.8072914 L54.6606863,36.8072914" id="Fill-9" fill="#FFFFFF"></path>
                            <path d="M20.7313397,12.7597606 C20.6406285,13.1563719 19.1220559,20.2411393 19.1153365,20.2411393 C18.7860885,21.6886013 18.5374726,22.7055536 17.7479493,23.3733522 C17.2708756,23.7428449 16.7333278,23.9292861 16.1252268,23.9292861 C15.124044,23.9292861 14.536101,23.4343693 14.4285915,22.4716545 L14.4050738,22.1496197 C14.4050738,22.1496197 14.7141638,20.2377494 14.7141638,20.2241901 C14.7141638,20.2241901 16.3167282,13.7563738 16.6090198,12.9021339 C16.6157392,12.8580659 16.6258182,12.8343371 16.6358972,12.8038285 C13.5214795,12.8377269 12.9671333,12.813998 12.9301769,12.7462012 C12.9100189,12.8173878 12.8293867,13.2207789 12.8293867,13.2207789 L11.1965852,20.5157164 L11.0420402,21.1292776 L10.786705,23.1530125 C10.786705,23.7428449 10.8975742,24.2445413 11.1327514,24.6445425 C11.8752393,25.9699703 14.0052726,26.166581 15.2013165,26.166581 C16.7501261,26.166581 18.1914262,25.827597 19.1758107,25.2242053 C20.8791653,24.2140327 21.3293616,22.6140279 21.7157241,21.2106338 L21.9005062,20.4919875 C21.9005062,20.4919875 23.5568254,13.773323 23.8356784,12.9021339 C23.8423977,12.8580659 23.8558364,12.8343371 23.8625558,12.8038285 C21.6082146,12.8343371 20.9463588,12.8038285 20.7313397,12.7597606" id="Fill-10" fill="#FFFFFF"></path>
                            <path d="M29.8394156,26.0920046 C28.7374426,26.0750553 28.3477204,26.0750553 27.0609653,26.1360725 L27.0004912,26.0479366 C27.1180797,25.5428503 27.2423877,25.0581031 27.3532569,24.5564067 L27.5078019,23.8852182 C27.7496984,22.8174183 27.991595,21.6004654 28.0050337,21.2208033 C28.031911,21.0038535 28.1024642,20.4411399 27.4708455,20.4411399 C27.2054313,20.4411399 26.9232187,20.5699538 26.6376464,20.6987678 C26.4931804,21.2648712 26.1639324,22.8343675 26.0194664,23.5530138 C25.703657,25.0716625 25.67342,25.2411545 25.5356733,25.9835296 L25.4416025,26.0920046 C24.2993134,26.0750553 23.9095912,26.0750553 22.6060377,26.1360725 L22.5489233,26.0309874 C22.7605827,25.1292898 22.9823212,24.2275921 23.1839016,23.3225046 C23.7382478,20.8919887 23.8692751,19.9563926 24.0171007,18.7191007 L24.1212506,18.6309649 C25.4046461,18.4682525 25.7103764,18.4174049 27.094562,18.1326583 L27.2054313,18.2682519 L26.9937718,19.0513051 C27.2323087,18.9021521 27.4641262,18.7631687 27.702663,18.6309649 C28.3477204,18.3190995 29.07341,18.224184 29.4765708,18.224184 C30.0745928,18.224184 30.7330889,18.3902862 31.0119418,19.0987629 C31.2907947,19.7292733 31.102653,20.4987672 30.7566066,22.0343651 L30.5886229,22.8140285 C30.2224184,24.5123387 30.1720233,24.8309838 29.9704429,25.9835296 L29.8394156,26.0920046" id="Fill-11" fill="#FFFFFF"></path>
                            <path d="M34.3245802,26.0920046 C33.6560051,26.081835 33.2326862,26.0750553 32.8160867,26.081835 C32.3994871,26.0920046 31.9896069,26.1021741 31.3747866,26.1360725 L31.3378302,26.081835 L31.3042334,26.0309874 C31.4688574,25.380138 31.5595686,25.1564085 31.6435605,24.9292891 C31.7275523,24.7021698 31.8081845,24.4682708 31.9560101,23.8106417 C32.1441519,22.9631815 32.2684598,22.3699593 32.349092,21.844534 C32.4431629,21.3394477 32.4901983,20.9123278 32.5540321,20.4106313 L32.6145062,20.3699532 L32.6548223,20.332665 C33.3233974,20.2377494 33.739997,20.1733425 34.1767546,20.098766 C34.6000735,20.0275793 35.0435505,19.9563926 35.7322836,19.820799 L35.7524416,19.885206 L35.7826787,19.9394434 C35.6415724,20.4716485 35.5239838,21.0038535 35.3929565,21.5428382 C35.2686486,22.0648736 35.1477003,22.6004685 35.0301118,23.1258938 C34.7680572,24.251321 34.6840653,24.6750511 34.6202315,24.9597977 C34.5664768,25.2547139 34.5530381,25.4106465 34.4522478,25.9835296 L34.3917737,26.0411569 L34.3245802,26.0920046" id="Fill-12" fill="#FFFFFF"></path>
                            <path d="M44.2423376,22.2547047 C44.6320597,20.5326656 44.3397681,19.736053 43.9567653,19.2479159 C43.372182,18.5021509 42.3676395,18.2682519 41.3059826,18.2682519 C40.6743639,18.2682519 39.1759493,18.3360487 37.9967038,19.4275775 C37.1567853,20.2174104 36.7435454,21.2919899 36.5184473,22.3258914 C36.2799104,23.3733522 36.0010575,25.2750529 37.7178509,25.9665804 C38.252039,26.1869201 39.014685,26.2581068 39.5018377,26.2581068 C40.7717944,26.2581068 42.0619092,25.9055633 43.0261356,24.8581025 C43.7854219,24.0208118 44.1213893,22.7801301 44.2423376,22.2547047 M41.3597374,22.1258908 C41.2959036,22.4106374 41.0472877,23.505556 40.704601,23.953015 C40.4694238,24.2886092 40.1872112,24.4919997 39.8915599,24.4919997 C39.8008487,24.4919997 39.2498622,24.4919997 39.2364235,23.6682684 C39.2364235,23.2648773 39.3069766,22.8547066 39.4111265,22.397078 C39.7000585,21.1021588 40.0494645,20.0207996 40.9196201,20.0207996 C41.6083532,20.0207996 41.652029,20.8241919 41.3597374,22.1258908" id="Fill-13" fill="#FFFFFF"></path>
                            <path d="M68.5831749,24.0886086 C68.3614364,24.4140333 67.8205289,24.6106441 67.5215179,24.6106441 C67.4308067,24.6106441 66.8898992,24.6106441 66.8764605,23.8072518 C66.8697412,23.4072506 66.943654,22.99369 67.0478039,22.5360615 C67.3300165,21.2716509 67.6794226,20.1869018 68.5630168,20.1869018 C69.1240824,20.1869018 69.4029353,20.7462256 69.3256628,21.6614826 C69.2752677,21.864873 69.2483903,22.058094 69.1946355,22.3021625 C69.097205,22.6919942 68.9863357,23.0919954 68.8889052,23.4886068 C68.8049134,23.7225058 68.7074828,23.9360658 68.5831749,24.0886086 M72.9675493,18.3529979 C71.580004,18.6140157 71.2137995,18.6546938 69.8968074,18.8377452 L69.7825785,18.9360506 C69.7758591,19.0445255 69.7557011,19.1462207 69.7389027,19.2546956 C69.5406819,18.9089318 69.2551097,18.6174055 68.7847553,18.4411338 C68.1867334,18.2004551 66.8059074,18.5089306 65.6266619,19.607239 C64.780024,20.3835126 64.3903019,21.4547023 64.141686,22.4716545 C63.9132282,23.5089458 63.6343752,25.4038669 65.3478089,26.0750553 C65.8920761,26.3089544 66.3893078,26.3733613 66.8764605,26.3496325 C67.417368,26.3191239 67.8910821,26.0411569 68.3479977,25.6581049 C68.2976026,25.827597 68.2640059,25.9835296 68.2203301,26.1428522 L68.2976026,26.2513271 C69.5339626,26.1869201 69.9169654,26.1869201 71.2507559,26.2038693 L71.3717042,26.1021741 C71.5598459,24.9564079 71.754707,23.8309807 72.2552984,21.6208045 C72.497195,20.5631742 72.7458108,19.5157133 73.0045057,18.4682525 L72.9675493,18.3529979" id="Fill-14" fill="#FFFFFF"></path>
                            <path d="M51.7881651,26.0920046 C50.6727534,26.0750553 50.3065489,26.0750553 49.0029955,26.1360725 L48.95596,26.0479366 C49.0735486,25.5428503 49.1978565,25.0581031 49.3087258,24.5564067 L49.4666305,23.8852182 C49.6950883,22.8174183 49.9403445,21.6004654 49.9705815,21.2208033 C49.9806606,21.0038535 50.0512137,20.4411399 49.419595,20.4411399 C49.1609001,20.4411399 48.8719682,20.5699538 48.5863959,20.6987678 C48.4419299,21.2648712 48.1227609,22.8343675 47.9682159,23.5530138 C47.6624856,25.0716625 47.6356082,25.2411545 47.4978616,25.9835296 L47.3937117,26.0920046 C46.2615016,26.0750553 45.8717794,26.0750553 44.5581469,26.1360725 L44.4976728,26.0309874 C44.7194113,25.1292898 44.9344304,24.2275921 45.1360108,23.3225046 C45.690357,20.8919887 45.8180246,19.9563926 45.9759293,18.7191007 L46.0800792,18.6309649 C47.3601149,18.4682525 47.6624856,18.4174049 49.0533906,18.1326583 L49.1609001,18.2682519 L48.95596,19.0513051 C49.1743388,18.9021521 49.4128757,18.7631687 49.6480528,18.6309649 C50.2998296,18.3190995 51.0221595,18.224184 51.418601,18.224184 C52.0233423,18.224184 52.6885577,18.3902862 52.964051,19.0987629 C53.2294652,19.7292733 53.0581218,20.4987672 52.7087158,22.0343651 L52.5340127,22.8140285 C52.1745276,24.5123387 52.1174132,24.8309838 51.9191924,25.9835296 L51.7881651,26.0920046" id="Fill-15" fill="#FFFFFF"></path>
                            <path d="M62.5559199,16.9055359 C62.3576992,17.7902844 61.7966336,18.542829 61.0575054,18.9021521 C60.4494044,19.2106277 59.7203552,19.2343565 58.9476302,19.2343565 L58.4470388,19.2343565 L58.4940742,19.0343559 C58.4940742,19.0343559 59.4011861,15.0445133 59.4011861,15.0580726 L59.4213442,14.8648517 L59.4415022,14.6953597 L59.8077067,14.7258682 C59.8077067,14.7258682 61.6857644,14.9055298 61.7260805,14.9123095 C62.4618491,15.1902764 62.7742987,15.9462109 62.5559199,16.9055359 M61.3565163,12.7394215 L60.442685,12.7597606 C58.0539569,12.7902691 57.1031692,12.7767098 56.7000083,12.7224723 C56.6664116,12.9021339 56.6025778,13.2139992 56.6025778,13.2139992 C56.6025778,13.2139992 55.75594,17.2174013 55.75594,17.2241809 C55.75594,17.2241809 53.7098986,25.7326814 53.612468,26.125903 C55.6853868,26.1021741 56.548823,26.0920046 56.9015888,26.1360725 C56.9855806,25.7462408 57.4727333,23.3665725 57.476093,23.3665725 C57.476093,23.3665725 57.8859732,21.6208045 57.9162103,21.5631772 C57.9162103,21.5631772 58.0304392,21.376736 58.1715455,21.3089391 L58.3664066,21.3089391 C60.1571128,21.3089391 62.1897155,21.3089391 63.7855606,20.1224948 C64.8640159,19.3191026 65.5964248,18.1258786 65.9391115,16.6716369 C66.016384,16.3089239 66.0835775,15.8885836 66.0835775,15.4580739 C66.0835775,14.9123095 65.9727083,14.3495959 65.6535393,13.9156963 C64.8505772,12.7767098 63.2312144,12.7597606 61.3565163,12.7394215" id="Fill-16" fill="#FFFFFF"></path>
                            <path d="M35.5374225,19.2479159 C36.2631121,18.7462195 36.3639023,18.0275732 35.7457223,17.6648602 C35.120823,17.2953676 34.0322886,17.4106222 33.29652,17.9190983 C32.5540321,18.4343541 32.4767596,19.139441 33.0949396,19.5123235 C33.7131196,19.8784263 34.8016539,19.7631717 35.5374225,19.2479159" id="Fill-17" fill="#FFFFFF"></path>
                            <path d="M82.1663364,18.3360487 L82.0487478,18.2106246 C80.6880799,18.4919814 80.4428237,18.5360493 79.1863057,18.7021515 L79.0888751,18.7936772 C79.0888751,18.820796 79.0888751,18.8343553 79.0855155,18.8546944 L79.0787961,18.8343553 C78.1414471,21.014023 78.1784035,20.5394453 77.4191172,22.2547047 C77.4090382,22.1733485 77.4090382,22.1157213 77.4090382,22.0411448 L77.2175368,18.3360487 L77.0999482,18.2106246 C75.6754465,18.4919814 75.6351304,18.5360493 74.3248576,18.7021515 L74.217348,18.7936772 C74.2039093,18.8377452 74.1971899,18.8885928 74.1904706,18.9394404 L74.2039093,18.9597794 C74.3651736,19.8072396 74.3282172,19.6275781 74.4962009,20.9631754 C74.5667541,21.6208045 74.670904,22.2852133 74.7448168,22.9462323 C74.8825634,24.0140321 74.9564762,24.5631863 75.1076616,26.2140388 C74.217348,27.7055688 74.0090482,28.2682824 73.1590507,29.5632016 L73.1590507,29.5767609 L72.5543094,30.532696 C72.4837563,30.6479506 72.4232821,30.7157474 72.3325709,30.7394763 C72.2418597,30.7835443 72.1074728,30.8004935 71.9361294,30.8004935 L71.4792138,30.8004935 L71.0827723,32.5462615 L72.8029253,32.5157529 C73.8041081,32.5055834 74.4390865,32.0174463 74.7784135,31.3903258 L75.8434302,29.5360828 L82.1663364,18.3360487" id="Fill-18" fill="#FFFFFF"></path>
                            <path d="M18.1242327,0.274976768 L40.0830613,0.274976768 C43.1504435,0.274976768 45.0553786,2.79362851 44.3397681,5.89872271 L34.1129208,50.1869932 C33.3939506,53.2819179 30.3332877,55.8005696 27.2726247,55.8005696 L5.30371719,55.8005696 C2.24305428,55.8005696 0.334759508,53.2819179 1.05037005,50.1869932 L11.280577,5.89872271 C11.9928279,2.79362851 15.0534908,0.274976768 18.1242327,0.274976768" id="Fill-19" fill="#D80029"></path>
                            <path d="M38.2654777,0.274976768 L60.2243062,0.274976768 C63.2849692,0.274976768 65.2067026,2.79362851 64.4742937,5.89872271 L54.2575254,50.1869932 C53.5351955,53.2819179 50.4644536,55.8005696 47.3937117,55.8005696 L25.4416025,55.8005696 C22.3742202,55.8005696 20.4692851,53.2819179 21.1882553,50.1869932 L31.4083833,5.89872271 C32.1239938,2.79362851 35.1980955,0.274976768 38.2654777,0.274976768" id="Fill-20" fill="#0E2E62"></path>
                            <path d="M62.5256829,0.274976768 L84.4643534,0.274976768 C87.5317356,0.274976768 89.4467497,2.79362851 88.7244198,5.89872271 L78.5009322,50.1869932 C77.7886813,53.2819179 74.7179394,55.8005696 71.6539168,55.8005696 L49.6850093,55.8005696 C46.6209867,55.8005696 44.7059726,53.2819179 45.4283024,50.1869932 L55.6517901,5.89872271 C56.3674006,2.79362851 59.4415022,0.274976768 62.5256829,0.274976768" id="Fill-21" fill="#0C606C"></path>
                            <path d="M65.7845665,32.9699916 L63.7150074,41.8988324 L64.4339776,41.8988324 L63.9938603,43.7564651 L63.2782498,43.7564651 L63.1472225,44.3259584 L60.59723,44.3259584 L60.7349767,43.7564651 L55.5577192,43.7564651 L55.9642398,42.0445955 L56.4917086,42.0412057 L58.6015838,32.9699916 L59.0181833,31.1462572 L61.6219306,31.1462572 L61.4136308,32.0649041 C61.4136308,32.0649041 62.0721269,31.556428 62.7037456,31.3903258 C63.3555223,31.214054 67.1183571,31.1496471 67.1183571,31.1496471 L66.6883188,32.9699916 L65.7845665,32.9699916 L65.7845665,32.9699916 Z M61.205331,32.9699916 L60.6845816,35.2547443 C60.6845816,35.2547443 61.4203502,34.9022009 61.8369497,34.793726 C62.2535493,34.6784714 62.8885276,34.6208441 62.8885276,34.6208441 L63.2782498,32.9699916 L61.205331,32.9699916 L61.205331,32.9699916 Z M60.4057286,36.4005105 L59.8581018,38.7564499 C59.8581018,38.7564499 60.6140284,38.3564487 61.0373473,38.2344144 C61.4505872,38.1259395 62.0855656,38.0547529 62.0855656,38.0547529 L62.4752878,36.4005105 L60.4057286,36.4005105 L60.4057286,36.4005105 Z M59.1324122,41.9327308 L61.1986117,41.9327308 L61.6622467,39.9191653 L59.5893279,39.9191653 L59.1324122,41.9327308 L59.1324122,41.9327308 Z" id="Fill-22" fill="#FFFFFF"></path>
                            <path d="M67.2594634,31.1598166 L70.024475,31.1598166 L70.0614314,32.1937181 C70.0412733,32.3665999 70.1958183,32.4479561 70.5116277,32.4547358 L70.9853417,32.4547358 L70.5653825,34.1733851 L69.0602486,34.1733851 C67.7701338,34.2716905 67.2762617,33.7089769 67.3132182,33.0750767 L67.2594634,31.1598166" id="Fill-23" fill="#FFFFFF"></path>
                            <path d="M67.7298177,39.3157736 L65.0857544,39.3157736 L65.4385201,37.7903453 L68.4555073,37.7903453 L68.7847553,36.390341 L65.8047246,36.390341 L66.2112451,34.6615222 L74.5029203,34.6615222 L74.0930401,36.390341 L71.3179494,36.390341 L70.9853417,37.7903453 L73.7705114,37.7903453 L73.4143859,39.3157736 L70.4007585,39.3157736 L69.8968074,39.9666231 L71.1230883,39.9666231 L71.5531266,41.8988324 C71.5934427,42.0852736 71.6169604,42.2106977 71.6774345,42.2954437 C71.734549,42.3564609 72.1074728,42.3903593 72.3258516,42.3903593 L72.6987754,42.3903593 L72.2552984,44.2818905 L71.3179494,44.2818905 C71.1734834,44.2818905 70.9551046,44.2785006 70.652734,44.2479921 C70.3738811,44.227653 70.1588619,44.0513813 69.9572815,43.9666353 C69.7758591,43.8784994 69.5070852,43.675109 69.416374,43.3056163 L68.9930551,41.3869664 L67.7634145,43.2784976 C67.3568939,43.8784994 66.799188,44.3293482 65.7980052,44.3293482 L63.8762718,44.3293482 L64.2626343,42.6615465 L65.0017625,42.6615465 C65.2100623,42.6615465 65.4015637,42.5734107 65.5258716,42.502224 C65.6669779,42.4412069 65.7845665,42.3700202 65.9256728,42.1700196 L67.7298177,39.3157736" id="Fill-24" fill="#FFFFFF"></path>
                            <path d="M38.5073742,35.1259304 L45.5089346,35.1259304 L45.1091334,36.8072914 L42.290367,36.8072914 L41.9577593,38.2513636 L44.8034031,38.2513636 L44.3868035,39.9869621 L41.5344404,39.9869621 L40.9868136,42.3157828 C40.9196201,42.5734107 41.6822661,42.6208685 41.9577593,42.6208685 L43.372182,42.4208678 L42.9152664,44.3293482 L39.6966988,44.3293482 C39.4312845,44.3293482 39.2431428,44.3090092 38.9575705,44.2412124 C38.6820773,44.1700257 38.55105,44.0446016 38.4099437,43.86494 C38.2923551,43.6818886 38.097494,43.5123966 38.1982842,43.1123954 L38.9306931,40.0140809 L37.3415674,40.0140809 L37.758167,38.2513636 L39.3607314,38.2513636 L39.6966988,36.8072914 L38.1042134,36.8072914 L38.5073742,35.1259304" id="Fill-25" fill="#FFFFFF"></path>
                            <path d="M43.032855,32.0988025 L45.9053761,32.0988025 L45.4921362,33.8513502 L41.5680371,33.8513502 L41.1648763,34.2310124 C41.0002523,34.4072841 40.9296991,34.3360975 40.704601,34.4547419 C40.4862222,34.580166 40.0326662,34.793726 39.4245652,34.793726 L38.1747665,34.793726 L38.5779274,33.1089751 L38.9441318,33.1089751 C39.2733799,33.1089751 39.4850393,33.068297 39.5925489,33.0005002 C39.7101375,32.9293135 39.8411648,32.7462621 39.9789114,32.4547358 L40.6239688,31.1394776 L43.4763319,31.1394776 L43.032855,32.0988025" id="Fill-26" fill="#FFFFFF"></path>
                            <path d="M47.0779023,31.1462572 L49.5371836,31.1462572 L49.2482517,32.3971085 C49.2482517,32.3971085 49.9739412,31.7632083 50.5182084,31.556428 C51.0355982,31.3462578 52.2518001,31.1665963 52.2518001,31.1665963 L56.2061363,31.1462572 L55.1310406,35.6750846 C54.9496182,36.4615277 54.7245201,36.9564444 54.5632557,37.1801739 C54.4255091,37.4106831 54.2709641,37.6072939 53.9316371,37.8005148 C53.612468,37.9835662 53.3067377,38.0852614 53.0278848,38.1123801 C52.7725496,38.1428887 52.3693887,38.1428887 51.8116828,38.1462786 L48.0118917,38.1462786 L47.1551748,41.7327302 C47.0678233,42.0920533 47.0375862,42.2581555 47.1081394,42.3564609 C47.1652538,42.4344272 47.3030005,42.5327326 47.4810632,42.5327326 L49.1474614,42.3700202 L48.7039845,44.3462974 L46.8091284,44.3462974 C46.2178258,44.3462974 45.7743489,44.3293482 45.4820572,44.3056193 C45.1864059,44.2818905 44.8739562,44.3056193 44.6622968,44.142907 C44.4842341,43.9801946 44.2087408,43.7869737 44.1986618,43.5801934 C44.2087408,43.3835826 44.2692149,43.0581579 44.3565665,42.6242583 L47.0779023,31.1462572 L47.0779023,31.1462572 Z M52.5508111,35.729322 L48.5527992,35.729322 L48.3579381,36.539494 L51.8284812,36.539494 C52.2282824,36.5022057 52.3189936,36.5530534 52.3425113,36.5361042 L52.5508111,35.729322 L52.5508111,35.729322 Z M48.7174232,34.9971164 C48.7174232,34.9971164 49.4531918,34.2716905 50.7869823,34.0310118 C51.0859933,33.9801642 53.0077267,33.9937235 53.0077267,33.9937235 L53.2227459,33.0242291 L49.1911372,33.0242291 L48.7174232,34.9971164 L48.7174232,34.9971164 Z" id="Fill-27" fill="#FFFFFF"></path>
                            <path d="M54.6606863,38.4649236 L54.5061413,39.5530625 C54.4187898,39.8886567 54.354956,40.1496745 54.1231385,40.3801837 C53.8610839,40.6005233 53.5620729,40.8378122 52.8263043,40.8378122 L51.4824348,40.8920496 L51.5361896,42.119172 C51.5496283,42.481885 51.6336201,42.4412069 51.6940942,42.4954443 C51.7680071,42.5598513 51.8116828,42.5801904 51.8788763,42.6005294 L52.3122742,42.5801904 L53.59231,42.502224 L53.1757104,44.3090092 L51.6940942,44.3090092 C50.6492357,44.3090092 49.863072,44.2785006 49.6043771,44.0751102 C49.3423225,43.9056181 49.3020064,43.7123972 49.2852081,43.3801928 L49.080268,38.5700087 L51.4622767,38.5700087 L51.4891541,39.5530625 L52.056939,39.5530625 C52.2585195,39.5530625 52.3828274,39.5395031 52.4668192,39.4852657 C52.5272934,39.4242485 52.5709691,39.3530619 52.6146449,39.2344175 L52.7826286,38.4649236 L54.6606863,38.4649236" id="Fill-28" fill="#FFFFFF"></path>
                            <path d="M20.7313397,14.4140029 C20.6406285,14.8207838 19.1220559,21.9021613 19.1153365,21.908941 C18.7860885,23.3394538 18.5374726,24.3631857 17.7479493,25.0275945 C17.2708756,25.4106465 16.7333278,25.5903081 16.1252268,25.5903081 C15.124044,25.5903081 14.536101,25.0953913 14.4285915,24.1428461 L14.4050738,23.8106417 C14.4050738,23.8106417 14.7141638,21.9021613 14.7141638,21.8953816 C14.7141638,21.8953816 16.3167282,15.4207856 16.6090198,14.5631559 C16.6157392,14.5156981 16.6258182,14.4817997 16.6358972,14.4580708 C13.5214795,14.4953591 12.9671333,14.4716302 12.9301769,14.4140029 C12.9100189,14.4817997 12.8293867,14.8919704 12.8293867,14.8919704 L11.1965852,22.1733485 L11.0420402,22.7936894 L10.786705,24.8072549 C10.786705,25.4106465 10.8975742,25.9021735 11.1327514,26.315734 C11.8752393,27.6242126 14.0052726,27.8174335 15.2013165,27.8174335 C16.7501261,27.8174335 18.1914262,27.4784495 19.1758107,26.8886171 C20.8791653,25.8614954 21.3293616,24.2750499 21.7157241,22.8716558 L21.9005062,22.1496197 C21.9005062,22.1496197 23.5568254,15.4309551 23.8356784,14.5631559 C23.8423977,14.5156981 23.8558364,14.4817997 23.8625558,14.4580708 C21.6082146,14.4919692 20.9463588,14.4716302 20.7313397,14.4140029" id="Fill-29" fill="#FFFFFF"></path>
                            <path d="M29.8394156,27.7496367 C28.7374426,27.7326875 28.3477204,27.7326875 27.0609653,27.7937046 L27.0004912,27.7055688 C27.1180797,27.2038723 27.2423877,26.7089556 27.3532569,26.2140388 L27.5078019,25.5428503 C27.7496984,24.48522 27.991595,23.2648773 28.0050337,22.8852151 C28.031911,22.6614856 28.1024642,22.1021619 27.4708455,22.1021619 C27.2054313,22.1021619 26.9232187,22.227586 26.6376464,22.3631796 C26.4931804,22.9191135 26.1639324,24.4987794 26.0194664,25.2140358 C25.703657,26.7326845 25.67342,26.9089562 25.5356733,27.6479415 L25.4416025,27.7496367 C24.2993134,27.7326875 23.9095912,27.7326875 22.6060377,27.7937046 L22.5489233,27.6920094 C22.7605827,26.7767524 22.9823212,25.8852243 23.1839016,24.9801368 C23.7382478,22.546231 23.8692751,21.6208045 24.0171007,20.3835126 L24.1212506,20.2987666 C25.4046461,20.1224948 25.7103764,20.0784269 27.094562,19.7902904 L27.2054313,19.9191044 L26.9937718,20.7055475 C27.2323087,20.5699538 27.4641262,20.4275805 27.702663,20.2987666 C28.3477204,19.9801215 29.07341,19.8784263 29.4765708,19.8784263 C30.0745928,19.8784263 30.7330889,20.054698 31.0119418,20.7530052 C31.2907947,21.3835156 31.102653,22.1597892 30.7566066,23.6919972 L30.5886229,24.4614911 C30.2224184,26.1733607 30.1720233,26.4886159 29.9704429,27.6479415 L29.8394156,27.7496367" id="Fill-30" fill="#FFFFFF"></path>
                            <path d="M34.3245802,27.7496367 C33.6560051,27.7326875 33.2326862,27.7326875 32.8160867,27.7496367 C32.3994871,27.7496367 31.9896069,27.7631961 31.3747866,27.7937046 L31.3378302,27.7326875 L31.3042334,27.6920094 C31.4688574,27.0479397 31.5595686,26.8174305 31.6435605,26.593701 C31.7275523,26.3631918 31.8081845,26.1360725 31.9560101,25.4784434 C32.1441519,24.6309832 32.2684598,24.0208118 32.349092,23.5089458 C32.4431629,22.99369 32.4901983,22.5733498 32.5540321,22.078433 L32.6145062,22.0343651 L32.6548223,21.9835175 C33.3233974,21.9021613 33.739997,21.8377543 34.1767546,21.759788 C34.6000735,21.6987708 35.0435505,21.6208045 35.7322836,21.4919905 L35.7524416,21.5428382 L35.7826787,21.6004654 C35.6415724,22.1326705 35.5239838,22.6614856 35.3929565,23.1970805 C35.2686486,23.7292855 35.1477003,24.2614905 35.0301118,24.7869158 C34.7680572,25.9055633 34.6840653,26.3326833 34.6202315,26.6275994 C34.5664768,26.9157359 34.5530381,27.061499 34.4522478,27.6479415 L34.3917737,27.7055688 L34.3245802,27.7496367" id="Fill-31" fill="#FFFFFF"></path>
                            <path d="M44.2423376,23.9157267 C44.6320597,22.1936876 44.3397681,21.3902953 43.9567653,20.9123278 C43.372182,20.1631729 42.3676395,19.9191044 41.3059826,19.9191044 C40.6743639,19.9191044 39.1759493,19.9902911 37.9967038,21.0953792 C37.1567853,21.8784324 36.7435454,22.9597916 36.5184473,23.9801337 C36.2799104,25.0309844 36.0010575,26.9360749 37.7178509,27.6242126 C38.252039,27.8513319 39.014685,27.9259084 39.5018377,27.9259084 C40.7717944,27.9259084 42.0619092,27.5665853 43.0261356,26.5157347 C43.7854219,25.6920033 44.1213893,24.4275927 44.2423376,23.9157267 M41.3597374,23.7936925 C41.2959036,24.0716594 41.0472877,25.1564085 40.704601,25.614037 C40.4694238,25.9394617 40.1872112,26.1428522 39.8915599,26.1428522 C39.8008487,26.1428522 39.2498622,26.1428522 39.2364235,25.3326802 C39.2364235,24.9258993 39.3069766,24.5123387 39.4111265,24.0614899 C39.7000585,22.7801301 40.0494645,21.6886013 40.9196201,21.6886013 C41.6083532,21.6886013 41.652029,22.4784342 41.3597374,23.7936925" id="Fill-32" fill="#FFFFFF"></path>
                            <path d="M68.5831749,25.7496306 C68.3614364,26.0750553 67.8205289,26.275056 67.5215179,26.275056 C67.4308067,26.275056 66.8898992,26.275056 66.8764605,25.4750535 C66.8697412,25.0648828 66.943654,24.654712 67.0478039,24.207253 C67.3300165,22.9258932 67.6794226,21.844534 68.5630168,21.844534 C69.1240824,21.844534 69.4029353,22.4038577 69.3256628,23.3225046 C69.2752677,23.525895 69.2483903,23.7157261 69.1946355,23.953015 C69.097205,24.356406 68.9863357,24.7496276 68.8889052,25.1428491 C68.8049134,25.380138 68.7074828,25.6038675 68.5831749,25.7496306 M72.9675493,20.0072403 C71.580004,20.2614783 71.2137995,20.3292751 69.8968074,20.5089367 L69.7825785,20.586903 C69.7758591,20.6987678 69.7557011,20.800463 69.7389027,20.9157176 C69.5406819,20.5767335 69.2551097,20.2784275 68.7847553,20.0953761 C68.1867334,19.8716466 66.8059074,20.1631729 65.6266619,21.2648712 C64.780024,22.0445346 64.3903019,23.1021649 64.141686,24.1360664 C63.9132282,25.1631882 63.6343752,27.061499 65.3478089,27.7326875 C65.8920761,27.9665865 66.3893078,28.0343833 66.8764605,28.0072646 C67.417368,27.9869256 67.8910821,27.7055688 68.3479977,27.3123473 C68.2976026,27.4750596 68.2640059,27.6411618 68.2203301,27.807264 L68.2976026,27.9021796 C69.5339626,27.8513319 69.9169654,27.8513319 71.2507559,27.8682811 L71.3717042,27.7631961 C71.5598459,26.61404 71.754707,25.485223 72.2552984,23.271657 C72.497195,22.2208063 72.7458108,21.1733455 73.0045057,20.1224948 L72.9675493,20.0072403" id="Fill-33" fill="#FFFFFF"></path>
                            <path d="M51.7881651,27.7496367 C50.6727534,27.7326875 50.3065489,27.7326875 49.0029955,27.7937046 L48.95596,27.7055688 C49.0735486,27.2038723 49.1978565,26.7089556 49.3087258,26.2140388 L49.4666305,25.5428503 C49.6950883,24.48522 49.9403445,23.2648773 49.9705815,22.8852151 C49.9806606,22.6614856 50.0512137,22.1021619 49.419595,22.1021619 C49.1609001,22.1021619 48.8719682,22.227586 48.5863959,22.3631796 C48.4419299,22.9191135 48.1227609,24.4987794 47.9682159,25.2140358 C47.6624856,26.7326845 47.6356082,26.9089562 47.4978616,27.6479415 L47.3937117,27.7496367 C46.2615016,27.7326875 45.8717794,27.7326875 44.5581469,27.7937046 L44.4976728,27.6920094 C44.7194113,26.7767524 44.9344304,25.8852243 45.1360108,24.9801368 C45.690357,22.546231 45.8180246,21.6208045 45.9759293,20.3835126 L46.0800792,20.2987666 C47.3601149,20.1224948 47.6624856,20.0784269 49.0533906,19.7902904 L49.1609001,19.9191044 L48.95596,20.7055475 C49.1743388,20.5699538 49.4128757,20.4275805 49.6480528,20.2987666 C50.2998296,19.9801215 51.0221595,19.8784263 51.418601,19.8784263 C52.0233423,19.8784263 52.6885577,20.054698 52.964051,20.7530052 C53.2294652,21.3835156 53.0581218,22.1597892 52.7087158,23.6919972 L52.5340127,24.4614911 C52.1745276,26.1733607 52.1174132,26.4886159 51.9191924,27.6479415 L51.7881651,27.7496367" id="Fill-34" fill="#FFFFFF"></path>
                            <path d="M62.5559199,18.5733376 C62.3576992,19.458086 61.7966336,20.1970713 61.0575054,20.5699538 C60.4494044,20.8750395 59.7203552,20.8987684 58.9476302,20.8987684 L58.4470388,20.8987684 L58.4940742,20.6987678 C58.4940742,20.6987678 59.4011861,16.712315 59.4011861,16.7190946 L59.4213442,16.5157042 L59.4415022,16.3631614 L59.8077067,16.3868902 C59.8077067,16.3868902 61.6857644,16.5563823 61.7260805,16.5699417 C62.4618491,16.8580781 62.7742987,17.5970634 62.5559199,18.5733376 M61.3565163,14.4004435 L60.442685,14.4207826 C58.0539569,14.4512911 57.1031692,14.4411216 56.7000083,14.3834943 C56.6664116,14.5631559 56.6025778,14.8750212 56.6025778,14.8750212 L55.75594,18.8852029 C55.75594,18.8852029 53.7098986,27.3869237 53.612468,27.7937046 C55.6853868,27.7530266 56.548823,27.7530266 56.9015888,27.8004843 C56.9855806,27.4004831 57.4727333,25.0275945 57.476093,25.0140352 C57.476093,25.0140352 57.8859732,23.271657 57.9162103,23.227589 C57.9162103,23.227589 58.0304392,23.037758 58.1715455,22.9631815 L58.3664066,22.9631815 C60.1571128,22.9631815 62.1897155,22.9631815 63.7855606,21.7767372 C64.8640159,20.9835144 65.5964248,19.7733412 65.9391115,18.329269 C66.016384,17.9733358 66.0835775,17.5496057 66.0835775,17.1190959 C66.0835775,16.5699417 65.9727083,16.0207874 65.6535393,15.5699386 C64.8505772,14.4275622 63.2312144,14.4207826 61.3565163,14.4004435" id="Fill-35" fill="#FFFFFF"></path>
                            <path d="M35.5374225,20.9123278 C36.2631121,20.4038516 36.3639023,19.6953749 35.7457223,19.3157127 C35.120823,18.9597794 34.0322886,19.0682543 33.29652,19.5835102 C32.5540321,20.0852066 32.4767596,20.800463 33.0949396,21.1733455 C33.7131196,21.5428382 34.8016539,21.4208039 35.5374225,20.9123278" id="Fill-36" fill="#FFFFFF"></path>
                            <path d="M82.1663364,20.0038504 L82.0487478,19.8716466 C80.6880799,20.1563933 80.4428237,20.1970713 79.1863057,20.3665634 L79.0888751,20.4479196 C79.0888751,20.4716485 79.0888751,20.4987672 79.0855155,20.5157164 L79.0787961,20.4987672 C78.1414471,22.675045 78.1784035,22.2004673 77.4191172,23.9157267 C77.4090382,23.8309807 77.4090382,23.7699636 77.4090382,23.6987769 L77.2175368,20.0038504 L77.0999482,19.8716466 C75.6754465,20.1563933 75.6351304,20.1970713 74.3248576,20.3665634 L74.217348,20.4479196 C74.2039093,20.5089367 74.1971899,20.5496148 74.1904706,20.6038522 L74.2039093,20.6208014 C74.3651736,21.4750413 74.3282172,21.2818204 74.4962009,22.6208075 C74.5667541,23.271657 74.670904,23.9428455 74.7448168,24.5970847 C74.8825634,25.6818338 74.9564762,26.2208185 75.1076616,27.8682811 C74.217348,29.3699806 74.0090482,29.9259145 73.1590507,31.2276134 L72.5543094,32.2004977 C72.4837563,32.3089726 72.4232821,32.3665999 72.3325709,32.407278 C72.2418597,32.4479561 72.1074728,32.4682952 71.9361294,32.4682952 L71.4792138,32.4682952 L71.0827723,34.2072835 L72.8029253,34.1733851 C73.8041081,34.1733851 74.4390865,33.6716887 74.7784135,33.0377884 L75.8434302,31.1903252 L82.1663364,20.0038504" id="Fill-37" fill="#FFFFFF"></path>
                        </g>
                    </g>
                </g>
            </g>
        </g>
    </g>
</svg>