<svg xmlns="http://www.w3.org/2000/svg" viewBox="0 0 128 128"><title>Монтажная область 1</title><rect x="18" y="43" width="93" height="33" style="fill:#fff"/><path d="M110,44V75H19V44h91m2-2H17V77h95V42Z"/><path d="M28.9,64.8V61.2H26v3.6H24.3V56.2H26v3.5h2.9V56.2h1.6v8.6Z"/><path d="M35.8,57.7v7.1H34.1V57.7H31.9V56.2H38v1.5Z"/><path d="M42.6,57.7v7.1H41V57.7H38.8V56.2h6.1v1.5Z"/><path d="M49.5,61.6H47.9v3.2H46.2V56.2h3.3a2.7,2.7,0,0,1,2.9,2.7A2.7,2.7,0,0,1,49.5,61.6Zm0-3.9H47.9v2.4h1.6a1.2,1.2,0,1,0,0-2.4Z"/><path d="M56.1,64.9A3.8,3.8,0,0,1,53,63.7l1.1-1a3,3,0,0,0,2.1.7c.9,0,1.5-.4,1.5-1.1a.9.9,0,0,0-.3-.7c-.2-.2-.4-.2-.8-.3h-1a3,3,0,0,1-1.6-.8,1.9,1.9,0,0,1-.7-1.6c0-1.6,1.2-2.6,3-2.6a3.9,3.9,0,0,1,2.8,1l-1.1,1a2.4,2.4,0,0,0-1.7-.6c-.9,0-1.3.5-1.3,1.1s0,.5.2.6a1.5,1.5,0,0,0,.8.4h1a2.2,2.2,0,0,1,1.6.7,2.1,2.1,0,0,1,.7,1.8C59.3,63.9,57.9,64.9,56.1,64.9Z"/><path d="M61,61.5V59.8h1.8v1.7Zm0,3.3V63h1.8v1.8Z"/><path d="M65,65.7H63.6L67,55.4h1.5Z"/><path d="M69.9,65.7H68.4l3.4-10.3h1.5Z"/><rect x="78" y="69" width="26" height="21" rx="6" ry="6"/><path d="M99,58a8,8,0,0,0-16,0V74H99Z" style="fill:none;stroke:#000;stroke-miterlimit:10;stroke-width:4px"/></svg>